<?xml version="1.0" encoding="UTF-8"?>
<svg version="1.1" xmlns="http://www.w3.org/2000/svg" width="900" height="901">
<path d="M0 0 C297 0 594 0 900 0 C900 297.33 900 594.66 900 901 C603 901 306 901 0 901 C0 603.67 0 306.34 0 0 Z " fill="#FEFEFE" transform="translate(0,0)"/>
<path d="M0 0 C1.19496094 0.39574219 2.38992188 0.79148437 3.62109375 1.19921875 C24.81566401 8.71343035 44.85013064 24.77233237 58 43 C61.01998449 41.59203426 63.5740608 39.91638511 66.25 37.9375 C99.09494899 14.75283012 136.54068698 7.6569839 176 7.625 C177.05112976 7.62291534 178.10225952 7.62083069 179.1852417 7.61868286 C197.2131967 7.62272729 214.56521136 8.52161358 231.99365234 13.43798828 C234.03857017 14.01080415 236.0903754 14.55119844 238.14453125 15.08984375 C253.34945641 19.18747507 267.32785985 25.40738418 280.51953125 34.02612305 C284.0963074 36.45630904 284.0963074 36.45630904 288.22265625 36.5546875 C290.37774946 34.669573 292.21104418 32.68714033 294.0625 30.5 C310.21521411 12.21985525 332.00412087 -3.01615705 357 -5 C379.84682189 -6.10419423 398.74972767 -3.40000411 416.60546875 11.8203125 C417.39566406 12.53960937 418.18585937 13.25890625 419 14 C419.90363281 14.82242188 420.80726563 15.64484375 421.73828125 16.4921875 C438.83280469 32.80646299 448.66227031 53.53702276 453.2890625 76.48046875 C453.66771519 78.35500761 454.0574532 80.22855391 454.52368164 82.08325195 C455.91976899 87.73632228 456.27505493 93.00161767 456.1875 98.8125 C456.18685547 99.64458984 456.18621094 100.47667969 456.18554688 101.33398438 C456.1584189 105.09271659 455.96978446 108.35847586 455 112 C454.86115726 113.64208237 454.78046521 115.28983994 454.75 116.9375 C454.71132812 118.18853516 454.71132812 118.18853516 454.671875 119.46484375 C454.83679826 122.10470564 454.83679826 122.10470564 456.484375 124.40625 C461.02293732 132.17327417 457.88667065 143.77386742 455.8125 152 C453.58193616 160.46392031 450.89260938 168.74206677 448 177 C447.77586426 177.69633545 447.55172852 178.3926709 447.32080078 179.11010742 C445.56940228 184.54720587 443.48182592 189.73615132 441.125 194.9375 C440.76913818 195.72672852 440.41327637 196.51595703 440.04663086 197.32910156 C439.03764341 199.55580084 438.02034831 201.77848891 437 204 C436.56558594 204.95519531 436.13117187 205.91039062 435.68359375 206.89453125 C418.87587433 242.20831108 387.82401204 268.34178533 352 283 C348.98183891 284.04566211 345.98054745 285.0521651 342.90625 285.91796875 C340.70929442 286.87439025 340.70929442 286.87439025 340.21875 289.61328125 C340.1465625 290.40089844 340.074375 291.18851562 340 292 C353.18964643 290.2637186 365.7639086 287.41249454 378.53662109 283.70800781 C380.71323617 283.08241973 382.89397091 282.4824335 385.08203125 281.8984375 C386.25121094 281.58132813 387.42039062 281.26421875 388.625 280.9375 C389.58664062 280.67839844 390.54828125 280.41929687 391.5390625 280.15234375 C395.71164769 278.76305184 399.70854874 277.05752227 403.75732422 275.34448242 C407.96548024 273.59969134 412.22362212 272.00729227 416.48950195 270.41015625 C426.58816565 266.62325188 436.39309698 262.64607267 445.92578125 257.59375 C452.10056006 254.39259402 457.03468564 252.86280582 464 254 C467.70245691 255.53985975 470.7900051 257.61308072 474 260 C474.763125 260.556875 475.52625 261.11375 476.3125 261.6875 C491.37119503 273.81811544 500.21396684 295.27547827 503 314 C503.84488061 322.0568512 503.65980616 330.07452367 499 337 C493.57575318 342.9316932 486.43575504 346.10472783 479.3125 349.5625 C478.20455078 350.11357422 477.09660156 350.66464844 475.95507812 351.23242188 C468.74873409 354.78294673 461.45083312 357.99944456 454 361 C453.17516113 361.33499512 452.35032227 361.66999023 451.50048828 362.01513672 C449.97319981 362.63299911 448.44268287 363.24290327 446.91015625 363.84765625 C444.66180398 364.73794339 442.42206372 365.64407354 440.18359375 366.55859375 C409.34369033 379.02488452 375.94060863 387.60526306 342.92895508 391.66210938 C340.99862355 391.80987737 340.99862355 391.80987737 340 393 C339.90082745 395.67746675 339.86208402 398.33361417 339.859375 401.01171875 C339.84505237 402.72275203 339.82902955 404.43377172 339.81152344 406.14477539 C339.80245972 407.04922394 339.793396 407.95367249 339.78405762 408.88552856 C339.45169765 436.22928303 336.7368591 462.73472278 325.69921875 488.08203125 C324.82874443 490.12951551 324.82874443 490.12951551 325 493 C325.64324219 493.31114746 326.28648437 493.62229492 326.94921875 493.94287109 C360.51186982 510.25139894 390.85610175 531.40886081 415.2734375 559.9921875 C417.8536722 562.99273193 420.53325543 565.90338144 423.203125 568.82421875 C427.50401719 574.03203821 428.79962098 577.84750141 428.5859375 584.5703125 C426.4091524 597.31176126 416.6018194 607.84810012 408.44335938 617.32324219 C407.24444786 618.7160237 406.06496677 620.12550296 404.890625 621.5390625 C389.57573535 639.73427543 364.27562452 656.20141262 340.38671875 659.34375 C339.49597656 659.3953125 338.60523438 659.446875 337.6875 659.5 C336.80449219 659.5721875 335.92148437 659.644375 335.01171875 659.71875 C327.43085818 657.90956927 321.62588852 649.67186464 316.5 644.125 C315.80986816 643.38596436 315.11973633 642.64692871 314.40869141 641.88549805 C311.62053851 638.8995477 308.84080628 635.9058258 306.06152344 632.91162109 C297.69586319 623.90996229 289.17814092 615.07515188 280.5 606.375 C279.12013916 604.98825073 279.12013916 604.98825073 277.71240234 603.57348633 C272.63444596 598.50708967 267.44590816 593.6659236 262 589 C260.39231627 587.54554483 258.78760285 586.08779105 257.1875 584.625 C252.88066803 580.73834675 248.45914848 577.0363132 243.921875 573.421875 C241.78109217 571.64742934 239.77375744 569.86574579 237.765625 567.953125 C232.34315968 562.57135311 232.34315968 562.57135311 225.5859375 559.45703125 C223.28723657 559.63048279 223.28723657 559.63048279 221.01708984 560.29150391 C208.3306253 563.27063646 195.02062283 563.32366935 182.05883789 563.26074219 C179.43547554 563.2499917 176.81279542 563.26073248 174.18945312 563.2734375 C157.70582193 563.2874227 140.75449355 562.25149785 125 557 C124.73316406 557.88171875 124.46632813 558.7634375 124.19140625 559.671875 C121.12268839 568.24416226 115.26676616 575.16330418 109.11328125 581.73046875 C107.35251106 583.62142527 105.73432168 585.54505063 104.125 587.5625 C85.53963236 609.22024549 53.74394364 625.2461834 27 634 C26.02353516 634.33596191 26.02353516 634.33596191 25.02734375 634.67871094 C6.36278254 641.09778409 -12.81801094 645.27671868 -32.625 645.0625 C-33.43839844 645.05798828 -34.25179687 645.05347656 -35.08984375 645.04882812 C-37.05992898 645.03723939 -39.02997536 645.01931397 -41 645 C-48.5740908 630.35926369 -54.31633704 616.08191744 -58 600 C-58.2165625 599.06285156 -58.433125 598.12570312 -58.65625 597.16015625 C-59.12010801 595.11031314 -59.56194032 593.05551082 -60 591 C-60.17829346 590.22406494 -60.35658691 589.44812988 -60.5402832 588.64868164 C-61.46753899 583.30625041 -61.18468787 577.84523061 -61.1875 572.4375 C-61.19974609 571.22513672 -61.21199219 570.01277344 -61.22460938 568.76367188 C-61.24591203 555.52052054 -60.44228816 542.09015589 -50.625 532.1875 C-42.12037874 525.46254949 -30.40100802 523.81146981 -20.0625 521.5625 C-1.13217417 517.90539443 -1.13217417 517.90539443 14 507 C17.40766785 501.44401981 19.07249408 496.32257871 19.5625 489.8125 C19.64628906 488.72582031 19.73007812 487.63914062 19.81640625 486.51953125 C19.87699219 485.68808594 19.93757812 484.85664062 20 484 C19.47535156 484.144375 18.95070313 484.28875 18.41015625 484.4375 C3.45278014 488.02129727 -12.70556466 486.98586767 -26.41015625 479.72265625 C-32.88834684 475.41363355 -39.76872067 469.55489713 -44 463 C-44 462.34 -44 461.68 -44 461 C-44.78117187 461.23783203 -44.78117187 461.23783203 -45.578125 461.48046875 C-52.96220843 463.06447374 -61.71638024 463.34659638 -68.32421875 459.328125 C-73.59462268 455.15111489 -76.88278865 450.35163406 -79 444 C-79.1875 441.0625 -79.1875 441.0625 -79 439 C-77.68 439 -76.36 439 -75 439 C-75.40992188 438.38253906 -75.81984375 437.76507812 -76.2421875 437.12890625 C-82.26657149 427.6599582 -83.37385056 420.11166955 -83 409 C-79.59905339 410.2129656 -77.22764972 411.44276503 -74.625 413.9375 C-67.79485527 419.95036245 -59.70464843 421.15435274 -51 423 C-51.33 422.401875 -51.66 421.80375 -52 421.1875 C-53 419 -53 419 -53 416 C-46.37256508 416.92177352 -41.39757012 420.90690836 -37.34375 426.13671875 C-33.54965988 432.10358723 -32.46416401 436.95936426 -33 444 C-33.62599617 445.68236471 -34.28752268 447.3523962 -35 449 C-35.83399875 451.91318914 -35.83399875 451.91318914 -35 455 C-29.44132273 462.0198153 -20.32447579 466.22517474 -12 469 C-1.96726096 469.80525932 6.02216635 468.48891682 15 464 C15.02698189 462.37509046 15.04638757 460.75005367 15.0625 459.125 C15.07990234 457.76761719 15.07990234 457.76761719 15.09765625 456.3828125 C15.16249257 453.9831415 15.16249257 453.9831415 14 452 C13.88017743 450.12155092 13.82270839 448.23899169 13.79467773 446.35693359 C13.77473251 445.17586029 13.75478729 443.99478699 13.73423767 442.77792358 C13.70916893 440.85757797 13.70916893 440.85757797 13.68359375 438.8984375 C13.66281265 437.59170074 13.64203156 436.28496399 13.62062073 434.93862915 C13.56540706 431.463311 13.51599475 427.98793347 13.46777344 424.51251221 C13.41755323 420.966621 13.36186988 417.4208161 13.30664062 413.875 C13.19906772 406.9167415 13.09762083 399.95840504 13 393 C8.87658645 391.29334901 4.78330218 390.16170714 0.4375 389.1875 C-1.11210098 388.82604266 -2.6615756 388.46404327 -4.2109375 388.1015625 C-7.2114399 387.40560087 -10.21592163 386.73639327 -13.2265625 386.0859375 C-39.36860906 380.21641865 -65.24590948 370.57374945 -89.45458984 359.19189453 C-91.78804544 358.09924824 -94.13319787 357.04109256 -96.48828125 355.99609375 C-104.91742014 352.21356176 -113.00421937 347.89176765 -121.0625 343.375 C-122.02687988 342.83633301 -122.99125977 342.29766602 -123.98486328 341.74267578 C-142.36488109 331.27872493 -142.36488109 331.27872493 -144.58056641 324.12573242 C-148.74519312 303.0189776 -141.3308158 282.99614776 -129.9375 265.5625 C-121.85712326 254.26355302 -111.38619778 241.8134631 -97.0625 239.3125 C-91.3531936 239.81047196 -86.14322751 242.6605034 -81 245 C-78.5847766 246.02424333 -76.16808835 247.04503884 -73.75 248.0625 C-70.19548799 249.56857844 -66.71757964 251.13277663 -63.29296875 252.91015625 C-58.20790103 255.47948567 -52.90324884 257.40861016 -47.5625 259.375 C-46.50643555 259.7678418 -45.45037109 260.16068359 -44.36230469 260.56542969 C-37.4920561 263.11127901 -30.5950664 265.57102223 -23.67236328 267.9699707 C-19.69155671 269.36164666 -15.80758001 270.88909191 -11.9375 272.5625 C-7.18043785 274.59746547 -2.36843606 276.26126253 2.5625 277.8125 C3.2541626 278.03172119 3.9458252 278.25094238 4.65844727 278.47680664 C7.55072074 279.3651657 9.9559337 280 13 280 C13.33 268.45 13.66 256.9 14 245 C9.05 246.98 4.1 248.96 -1 251 C-16.43897227 255.36952045 -31.49447878 255.74303737 -46 248.0625 C-59.54093608 240.32187343 -65.54553089 227.53688996 -72 214 C-79.3898531 198.60155964 -86.00598129 187.58674058 -101.3125 179.25 C-116.05989068 170.83975194 -126.14457167 158.44070616 -131 142 C-132.22087502 136.70726805 -133.12007536 131.35801244 -134 126 C-134.185625 124.98164063 -134.37125 123.96328125 -134.5625 122.9140625 C-138.90817606 93.96875586 -127.78859858 61.15079451 -110.78881836 37.8815918 C-106.83555832 32.63357276 -102.53191456 27.75550048 -98 23 C-97.47535156 22.40058594 -96.95070312 21.80117187 -96.41015625 21.18359375 C-90.64262457 14.85838725 -83.18139074 10.53615316 -76 6 C-75.20464844 5.48050781 -74.40929687 4.96101563 -73.58984375 4.42578125 C-66.65197383 0.18819981 -58.74404569 -1.73769452 -51 -4 C-35.55976535 -9.14674488 -15.01555625 -5.33678674 0 0 Z " fill="#989ACB" transform="translate(274,118)"/>
<path d="M0 0 C8.71407447 6.07835081 19.144102 13.8086823 25.10107422 22.74414062 C24.72929955 26.12291633 23.68183036 29.01040701 22.35107422 32.11914062 C11.85131392 57.91203006 7.56753234 84.9219383 7.84321022 112.69618416 C7.87147056 115.81218264 7.87571619 118.92744461 7.873703 122.04356384 C7.87021551 130.88258671 7.89391046 139.72107725 7.96704102 148.55981445 C8.01049271 154.01251536 8.01534851 159.46410813 7.9954586 164.91692924 C7.995556 166.98104639 8.01038646 169.04521879 8.04041481 171.10911751 C8.08116096 173.97841051 8.07288697 176.84370849 8.0534668 179.71313477 C8.0775914 180.5582663 8.101716 181.40339783 8.12657166 182.2741394 C8.0802624 184.67880228 7.95269927 186.49244974 7.10107422 188.74414062 C-1.91813471 197.32126309 -17.7116835 199.22643571 -29.53564453 198.99023438 C-42.41766884 198.04764723 -55.15805548 193.44030392 -63.85595703 183.50976562 C-69.60963872 175.70898455 -73.74598785 167.45405353 -77.89892578 158.74414062 C-85.28877888 143.34570027 -91.90490707 132.3308812 -107.21142578 123.99414062 C-122.0256465 115.54578025 -131.92338499 103.19106712 -136.89892578 86.74414062 C-140.8782803 71.47851337 -143.33692183 54.73621158 -135.36938477 40.47729492 C-134.61106022 39.19271299 -133.8404194 37.9153218 -133.05761719 36.64550781 C-131.90360813 34.75182417 -130.83903218 32.82810875 -129.78564453 30.87695312 C-118.19577009 9.84238756 -98.76121399 -6.45469864 -75.77392578 -13.69335938 C-49.08629085 -21.26504206 -22.70881652 -15.01853332 0 0 Z " fill="#495581" transform="translate(279.89892578125,173.255859375)"/>
<path d="M0 0 C0.33 0 0.66 0 1 0 C1.98991302 24.62903589 -1.22077576 47.04963596 -10.32324219 70.0090332 C-11.10601357 72.31188335 -11.56583161 74.6092243 -12 77 C-11.35675781 77.31114746 -10.71351563 77.62229492 -10.05078125 77.94287109 C23.51186982 94.25139894 53.85610175 115.40886081 78.2734375 143.9921875 C80.8536722 146.99273193 83.53325543 149.90338144 86.203125 152.82421875 C90.50401719 158.03203821 91.79962098 161.84750141 91.5859375 168.5703125 C89.4091524 181.31176126 79.6018194 191.84810012 71.44335938 201.32324219 C70.24444786 202.7160237 69.06496677 204.12550296 67.890625 205.5390625 C52.57573535 223.73427543 27.27562452 240.20141262 3.38671875 243.34375 C2.49597656 243.3953125 1.60523438 243.446875 0.6875 243.5 C-0.19550781 243.5721875 -1.07851563 243.644375 -1.98828125 243.71875 C-9.56914182 241.90956927 -15.37411148 233.67186464 -20.5 228.125 C-21.19013184 227.38596436 -21.88026367 226.64692871 -22.59130859 225.88549805 C-25.37946149 222.8995477 -28.15919372 219.9058258 -30.93847656 216.91162109 C-39.30413681 207.90996229 -47.82185908 199.07515188 -56.5 190.375 C-57.87986084 188.98825073 -57.87986084 188.98825073 -59.28759766 187.57348633 C-64.36555404 182.50708967 -69.55409184 177.6659236 -75 173 C-76.60768373 171.54554483 -78.21239715 170.08779105 -79.8125 168.625 C-84.11933197 164.73834675 -88.54085152 161.0363132 -93.078125 157.421875 C-95.21890783 155.64742934 -97.22624256 153.86574579 -99.234375 151.953125 C-104.65684032 146.57135311 -104.65684032 146.57135311 -111.4140625 143.45703125 C-113.71276343 143.63048279 -113.71276343 143.63048279 -115.98291016 144.29150391 C-128.6693747 147.27063646 -141.97937717 147.32366935 -154.94116211 147.26074219 C-157.56452446 147.2499917 -160.18720458 147.26073248 -162.81054688 147.2734375 C-179.29417807 147.2874227 -196.24550645 146.25149785 -212 141 C-212.26683594 141.88171875 -212.53367187 142.7634375 -212.80859375 143.671875 C-215.87731161 152.24416226 -221.73323384 159.16330418 -227.88671875 165.73046875 C-229.64748894 167.62142527 -231.26567832 169.54505063 -232.875 171.5625 C-251.46036764 193.22024549 -283.25605636 209.2461834 -310 218 C-310.97646484 218.33596191 -310.97646484 218.33596191 -311.97265625 218.67871094 C-330.63721746 225.09778409 -349.81801094 229.27671868 -369.625 229.0625 C-370.43839844 229.05798828 -371.25179687 229.05347656 -372.08984375 229.04882812 C-374.05992898 229.03723939 -376.02997536 229.01931397 -378 229 C-379.34588326 226.44342265 -380.67675328 223.88076095 -382 221.3125 C-382.3815625 220.59126953 -382.763125 219.87003906 -383.15625 219.12695312 C-385.1162084 215.29453447 -386.55874253 212.42628851 -386 208 C-379.43753551 204.82708027 -372.09531822 205.29046818 -365 206 C-361.8085549 207.1922065 -359.47635683 208.68045732 -357 211 C-356.43925781 211.50917969 -355.87851562 212.01835938 -355.30078125 212.54296875 C-354 214 -354 214 -354 216 C-343.60642192 214.97414035 -333.97787079 213.22656867 -324 210 C-323.34370605 209.79391113 -322.68741211 209.58782227 -322.01123047 209.37548828 C-302.68889765 203.30405257 -283.60435382 196.8434141 -267 185 C-266.13375 184.38253906 -265.2675 183.76507812 -264.375 183.12890625 C-259.55489459 179.50545895 -255.0959894 175.47769285 -250.65234375 171.40625 C-249.17068757 170.06206708 -247.67637589 168.73046893 -246.13916016 167.45019531 C-241.21293416 163.30985612 -237.30578402 158.92624238 -233.5 153.75 C-232.93958008 152.99912109 -232.37916016 152.24824219 -231.80175781 151.47460938 C-230.69297826 149.98642632 -229.58769809 148.49562815 -228.48632812 147.00195312 C-227.24757389 145.33346024 -225.9789374 143.68720523 -224.703125 142.046875 C-218.7420684 134.2736572 -214.41123768 125.71015218 -210 117 C-206.53928657 118.03821403 -203.35568889 119.27458122 -200.15625 120.93359375 C-196.04813306 123.03734718 -191.87867437 124.61729554 -187.5 126.0625 C-186.72317871 126.31926514 -185.94635742 126.57603027 -185.14599609 126.84057617 C-169.1754108 131.94837356 -153.01298031 133.17811243 -136.3125 133.1875 C-135.15427734 133.19974609 -133.99605469 133.21199219 -132.80273438 133.22460938 C-126.93382407 133.23460752 -121.57451077 132.94790449 -115.88500977 131.47924805 C-113.38271528 130.8430605 -110.87638639 130.59412518 -108.3125 130.3125 C-93.63807979 128.1225454 -79.17987186 122.69861553 -66 116 C-65.29488281 115.67644531 -64.58976562 115.35289062 -63.86328125 115.01953125 C-52.39902749 109.6943505 -42.92530219 101.79208872 -34 93 C-33.40445312 92.41734375 -32.80890625 91.8346875 -32.1953125 91.234375 C-18.26693034 76.32724166 -11.45844644 53.91044704 -6.67456055 34.63647461 C-5.97978701 31.92099888 -5.21031268 29.23325646 -4.4375 26.5390625 C-2.91947249 21.01179753 -2.04887896 15.49026345 -1.3125 9.8125 C-1.18294922 8.86052734 -1.05339844 7.90855469 -0.91992188 6.92773438 C-0.6067153 4.61928593 -0.30015231 2.31017546 0 0 Z " fill="#8B8CBE" transform="translate(611,534)"/>
<path d="M0 0 C2.62022952 1.50193842 5.02200534 3.13555365 7.4453125 4.9375 C8.2084375 5.494375 8.9715625 6.05125 9.7578125 6.625 C24.81650753 18.75561544 33.65927934 40.21297827 36.4453125 58.9375 C37.29019311 66.9943512 37.10511866 75.01202367 32.4453125 81.9375 C27.02106568 87.8691932 19.88106754 91.04222783 12.7578125 94.5 C11.64986328 95.05107422 10.54191406 95.60214844 9.40039062 96.16992188 C2.19404659 99.72044673 -5.10385438 102.93694456 -12.5546875 105.9375 C-13.37952637 106.27249512 -14.20436523 106.60749023 -15.05419922 106.95263672 C-16.58148769 107.57049911 -18.11200463 108.18040327 -19.64453125 108.78515625 C-21.89288352 109.67544339 -24.13262378 110.58157354 -26.37109375 111.49609375 C-56.72280131 123.76504306 -93.52980134 135.9375 -126.5546875 135.9375 C-126.5546875 103.5975 -126.5546875 71.2575 -126.5546875 37.9375 C-116.3246875 35.6275 -106.0946875 33.3175 -95.5546875 30.9375 C-84.19978344 27.81624675 -73.42054586 24.83486733 -62.64135742 20.23144531 C-59.53669365 18.9299569 -56.4103907 17.72327304 -53.2578125 16.54296875 C-42.09523465 12.36372419 -31.16906136 8.11753221 -20.62890625 2.53125 C-13.81085554 -1.00339382 -7.44303589 -3.09557456 0 0 Z " fill="#8181B8" transform="translate(740.5546875,373.0625)"/>
<path d="M0 0 C2.15088604 1.64566928 4.16128092 3.38561627 6.19921875 5.16796875 C7.13399048 5.93004639 7.13399048 5.93004639 8.08764648 6.70751953 C13.35862677 11.08112632 17.28538403 15.8834114 21.19921875 21.48046875 C21.78316406 22.29064453 22.36710938 23.10082031 22.96875 23.93554688 C27.19921875 29.88495316 27.19921875 29.88495316 27.19921875 32.16796875 C27.85921875 32.16796875 28.51921875 32.16796875 29.19921875 32.16796875 C34.05656558 47.65943561 37.93436526 64.57289737 31.19921875 80.16796875 C27.39281826 79.32846187 23.79823595 77.99242923 20.13671875 76.66796875 C10.91085709 73.33775216 2.53430142 71.11730615 -7.1796875 74.26171875 C-13.32256817 77.15248613 -18.14850946 80.35120537 -21.80078125 86.16796875 C-22.87025924 89.24757923 -23.34406062 92.32213357 -23.80078125 95.54296875 C-27.1749809 115.13573702 -34.39911505 132.22088519 -47.80078125 147.16796875 C-48.61095703 148.10189453 -48.61095703 148.10189453 -49.4375 149.0546875 C-57.2111948 157.45497734 -68.5433162 165.21052985 -78.80078125 170.16796875 C-79.79078125 170.16796875 -80.78078125 170.16796875 -81.80078125 170.16796875 C-81.80958061 168.78093246 -81.80958061 168.78093246 -81.81855774 167.36587524 C-81.8769147 158.57106612 -81.94922949 149.77649945 -82.03649616 140.98192787 C-82.08086792 136.46258007 -82.12019291 131.94331559 -82.1472168 127.42382812 C-82.17358639 123.04696588 -82.21421401 118.67043025 -82.26396751 114.29377365 C-82.2804124 112.63962298 -82.29206368 110.98541613 -82.29839516 109.33119583 C-82.41795101 80.91618753 -89.26670085 48.51402313 -107.80078125 26.16796875 C-99.9878132 9.00311469 -80.73520433 -3.15246109 -63.80078125 -9.83203125 C-62.95644531 -10.17234375 -62.11210938 -10.51265625 -61.2421875 -10.86328125 C-40.83526593 -17.73987261 -17.45355634 -11.41662193 0 0 Z " fill="#495480" transform="translate(695.80078125,155.83203125)"/>
<path d="M0 0 C1.28082933 0.54831269 2.5634468 1.09246383 3.84765625 1.6328125 C4.48687012 1.90206543 5.12608398 2.17131836 5.78466797 2.44873047 C6.41260254 2.71314941 7.04053711 2.97756836 7.6875 3.25 C13.87286528 5.87286528 13.87286528 5.87286528 15 7 C15.56084233 12.72059173 14.55771906 15.5274389 11 20 C8.66481395 22.84283519 6.558378 24.01576779 3 25 C-2.06848236 25.33400213 -7.06385119 25.31630635 -12 24 C-12 24.66 -12 25.32 -12 26 C-11.319375 26.226875 -10.63875 26.45375 -9.9375 26.6875 C-3.64863755 29.49741727 0.56441774 32.92166216 4 39 C6.02514522 45.07543566 6.10046489 52.45235531 3.5 58.375 C0.5041671 63.51838337 -4.40615335 67.13538445 -10 69 C-17.07846658 69.49142892 -22.75542509 69.68269802 -29 66 C-31.17576488 65.75225614 -31.17576488 65.75225614 -33 67 C-35.26325246 69.97763043 -35.26325246 69.97763043 -37 73 C-36.319375 73.226875 -35.63875 73.45375 -34.9375 73.6875 C-31.99061351 75.00419397 -29.64388109 76.68337457 -27.0559082 78.59057617 C-10.62362662 89.85569451 9.19127501 98.53494239 28 105 C28.99966797 105.3515918 29.99933594 105.70318359 31.02929688 106.06542969 C61.13664503 116.52011275 91.19384484 121.04746681 123 121 C119.53024828 138.88067363 110.50197892 154.13002553 101.4375 169.6875 C101.00800049 170.42468262 100.57850098 171.16186523 100.13598633 171.92138672 C99.12123522 173.63276189 98.0651049 175.31950116 97 177 C96.67 177 96.34 177 96 177 C95.67 167.76 95.34 158.52 95 149 C90.26237253 146.63118627 86.42083518 145.20824305 81.375 144.125 C79.83448512 143.77279217 78.29412612 143.41990195 76.75390625 143.06640625 C74.46141103 142.54862577 72.16840907 142.0361842 69.87060547 141.54248047 C42.99003818 135.72995752 16.39343924 125.87434305 -8.45458984 114.19189453 C-10.78804544 113.09924824 -13.13319787 112.04109256 -15.48828125 110.99609375 C-23.91742014 107.21356176 -32.00421937 102.89176765 -40.0625 98.375 C-41.50906982 97.56699951 -41.50906982 97.56699951 -42.98486328 96.74267578 C-61.36488109 86.27872493 -61.36488109 86.27872493 -63.58056641 79.12573242 C-67.74519312 58.0189776 -60.3308158 37.99614776 -48.9375 20.5625 C-35.83959017 2.24743954 -22.36745719 -10.16942105 0 0 Z " fill="#8282B5" transform="translate(193,363)"/>
<path d="M0 0 C5.64747478 1.81459845 9.6401607 7.39065303 13.3828125 11.765625 C14.05441406 12.52875 14.72601562 13.291875 15.41796875 14.078125 C19.19880157 18.94047264 20.44040882 23.32145288 20.07421875 29.4765625 C17.39890274 42.203207 8.07959557 52.50343541 -0.17382812 62.08886719 C-1.37273964 63.4816487 -2.55222073 64.89112796 -3.7265625 66.3046875 C-18.32730759 83.65144428 -42.82597359 100.2592844 -65.6171875 103.765625 C-67.48983596 103.87840355 -69.36619061 103.94020491 -71.2421875 103.953125 C-72.18320312 103.96730469 -73.12421875 103.98148438 -74.09375 103.99609375 C-76.6171875 103.765625 -76.6171875 103.765625 -79.6171875 101.765625 C-79.75014517 93.00941304 -76.72125321 87.69060063 -71.6171875 80.765625 C-71.21193848 80.21374512 -70.80668945 79.66186523 -70.38916016 79.09326172 C-66.11316202 73.30464347 -61.80381471 67.78785832 -56.6171875 62.765625 C-55.87855469 62.02699219 -55.13992188 61.28835938 -54.37890625 60.52734375 C-52.45833333 58.60677083 -50.53776042 56.68619792 -48.6171875 54.765625 C-48.83375 54.24355469 -49.0503125 53.72148438 -49.2734375 53.18359375 C-52.08898873 45.74063193 -53.37787966 37.95895557 -50.0546875 30.453125 C-47.19265857 25.51054313 -43.10623506 22.16970311 -38.1796875 19.390625 C-32.28055113 17.95181125 -28.25797543 18.13383122 -22.9296875 20.953125 C-19.27047898 23.18157033 -16.36847555 25.48182958 -13.6171875 28.765625 C-13.6171875 29.425625 -13.6171875 30.085625 -13.6171875 30.765625 C-12.9571875 30.765625 -12.2971875 30.765625 -11.6171875 30.765625 C-11.83375 30.17136719 -12.0503125 29.57710937 -12.2734375 28.96484375 C-14.40193366 22.62862603 -15.90289942 16.43908209 -14.6171875 9.765625 C-11.48087685 4.26228745 -6.64743854 -0.14717576 0 0 Z " fill="#4E5983" transform="translate(682.6171875,673.234375)"/>
<path d="M0 0 C1.28082933 0.54831269 2.5634468 1.09246383 3.84765625 1.6328125 C4.48687012 1.90206543 5.12608398 2.17131836 5.78466797 2.44873047 C6.41260254 2.71314941 7.04053711 2.97756836 7.6875 3.25 C13.87286528 5.87286528 13.87286528 5.87286528 15 7 C15.56084233 12.72059173 14.55771906 15.5274389 11 20 C8.66481395 22.84283519 6.558378 24.01576779 3 25 C-2.06848236 25.33400213 -7.06385119 25.31630635 -12 24 C-12 24.66 -12 25.32 -12 26 C-11.319375 26.226875 -10.63875 26.45375 -9.9375 26.6875 C-3.64863755 29.49741727 0.56441774 32.92166216 4 39 C6.02514522 45.07543566 6.10046489 52.45235531 3.5 58.375 C0.5041671 63.51838337 -4.40615335 67.13538445 -10 69 C-17.07846658 69.49142892 -22.75542509 69.68269802 -29 66 C-31.12907319 65.76098289 -31.12907319 65.76098289 -33 67 C-34.75590531 68.93202955 -36.3575048 70.96849278 -38 73 C-38.66 73 -39.32 73 -40 73 C-40.226875 73.59683594 -40.45375 74.19367188 -40.6875 74.80859375 C-42.37042714 77.61848102 -44.14102171 78.50419061 -47 80.0625 C-50.37297755 81.91077403 -51.82616666 82.73925 -54 86 C-56.375 86.5 -56.375 86.5 -59 86 C-65.13917973 79.86082027 -64.35200103 72.64044083 -64.38720703 64.48461914 C-64.04262581 41.74806631 -51.83746726 21.07193201 -35.95019531 5.41162109 C-23.57715448 -6.24272881 -14.93719731 -6.79123458 0 0 Z " fill="#49547E" transform="translate(193,363)"/>
<path d="M0 0 C2.62022952 1.50193842 5.02200534 3.13555365 7.4453125 4.9375 C8.2084375 5.494375 8.9715625 6.05125 9.7578125 6.625 C24.81650753 18.75561544 33.65927934 40.21297827 36.4453125 58.9375 C37.25909285 66.69777656 37.33064691 75.38639254 32.4453125 81.9375 C29.69129979 82.9629779 28.20661385 83.2375423 25.453125 82.15234375 C24.83179688 81.73082031 24.21046875 81.30929687 23.5703125 80.875 C22.879375 80.41738281 22.1884375 79.95976562 21.4765625 79.48828125 C19.49138379 77.97267366 17.82740726 76.33202704 16.0703125 74.5625 C13.95171451 72.67502179 12.95917383 71.97175742 10.1015625 71.78125 C7.52509162 72.06752454 4.99856187 72.49175662 2.4453125 72.9375 C-5.17085424 73.55872078 -10.24529379 72.18788772 -16.6796875 67.8125 C-22.64649595 62.51576095 -25.97538853 54.35617345 -26.80859375 46.5625 C-27.23777576 37.48045496 -23.70172251 31.8957168 -17.921875 25.1875 C-16.5546875 23.9375 -16.5546875 23.9375 -14.5546875 23.9375 C-14.5546875 23.2775 -14.5546875 22.6175 -14.5546875 21.9375 C-16.0396875 22.06125 -16.0396875 22.06125 -17.5546875 22.1875 C-23.61036092 22.17524155 -28.05310873 19.16327859 -32.6171875 15.4375 C-34.5546875 12.9375 -34.5546875 12.9375 -34.38964844 10.91064453 C-32.90158226 7.39410921 -29.104609 6.34045661 -25.8046875 4.8125 C-25.08796875 4.46574219 -24.37125 4.11898438 -23.6328125 3.76171875 C-8.45927675 -3.51823131 -8.45927675 -3.51823131 0 0 Z " fill="#515C87" transform="translate(740.5546875,373.0625)"/>
<path d="M0 0 C9.50165366 4.42343448 15.56589402 11.31919723 19.3671875 21 C24.34884788 35.44160778 22.83729677 48.66540604 16.55078125 62.4375 C12.73188312 69.64154487 7.43823286 75.20387072 -0.5 77.68359375 C-8.26404175 79.19885579 -15.05025611 79.02631521 -21.80078125 74.6640625 C-30.91156535 67.51336741 -35.84424968 56.36431872 -37.76171875 45.125 C-39.02944621 31.86024198 -36.20366968 18.70063084 -27.76171875 8.125 C-19.5182267 0.41195874 -11.37321492 -3.60339483 0 0 Z " fill="#F3F3F3" transform="translate(431.76171875,235.875)"/>
<path d="M0 0 C8.9729649 6.79357304 14.01039568 17.05717623 16 28 C17.56722249 42.08224193 15.02300373 54.37833797 6.66796875 66.0625 C1.82432814 71.68883664 -3.85805107 75.35615391 -11.27734375 76.28515625 C-19.69065072 76.79073248 -25.41960857 73.50776553 -31.625 68.0625 C-41.25117838 57.85155378 -43.3447862 45.35876121 -43.14453125 31.90625 C-42.7352753 20.84527846 -38.7337527 11.66293351 -31.125 3.5 C-22.80435886 -4.17575213 -9.9447018 -6.02399801 0 0 Z " fill="#F3F3F4" transform="translate(576,238)"/>
<path d="M0 0 C8.16741758 2.11947861 15.35686405 8.22466852 22.1328125 13.05078125 C27.28246958 16.65824681 32.62074953 19.21283256 38.4765625 21.47265625 C43.05559681 23.28196345 47.55479699 25.27609242 52.06640625 27.24609375 C56.98728901 29.28674418 62.01015444 30.83488076 67.13671875 32.26953125 C68.20921875 32.56988281 69.28171875 32.87023437 70.38671875 33.1796875 C71.49273437 33.48777344 72.59875 33.79585938 73.73828125 34.11328125 C74.8365625 34.42136719 75.93484375 34.72945313 77.06640625 35.046875 C82.81380612 36.65256345 88.56489595 38.20248191 94.36328125 39.61328125 C94.20309344 46.82173274 90.85554542 52.11045502 86.36328125 57.61328125 C80.11789259 63.26475479 72.98680246 68.26181117 64.36328125 68.80078125 C63.37328125 68.70796875 63.37328125 68.70796875 62.36328125 68.61328125 C62.22792969 68.07960938 62.09257812 67.5459375 61.953125 66.99609375 C59.38890403 58.12112536 54.23858342 50.7648674 47.36328125 44.61328125 C46.66203125 43.97390625 45.96078125 43.33453125 45.23828125 42.67578125 C29.60032295 31.45724595 12.90904848 30.96085459 -5.63671875 33.61328125 C-6.28764465 32.36592558 -6.93223544 31.11526293 -7.57421875 29.86328125 C-7.93386719 29.1671875 -8.29351562 28.47109375 -8.6640625 27.75390625 C-10.75220344 23.15831896 -10.91145496 18.67529835 -11.01171875 13.67578125 C-11.04910156 12.97259766 -11.08648437 12.26941406 -11.125 11.54492188 C-11.19193212 7.57733455 -10.79775203 5.82024593 -8.3359375 2.65625 C-5.47312446 0.48946097 -3.60988724 -0.23793984 0 0 Z " fill="#4B537F" transform="translate(423.63671875,368.38671875)"/>
<path d="M0 0 C2.58790414 2.30275944 4.46582891 4.69347301 6.46484375 7.51953125 C7.12742187 8.44636719 7.79 9.37320312 8.47265625 10.328125 C11.92529925 15.42041227 13.7299636 18.86125372 14.33984375 25.08203125 C15.82484375 25.57703125 15.82484375 25.57703125 17.33984375 26.08203125 C16.01984375 26.08203125 14.69984375 26.08203125 13.33984375 26.08203125 C13.33984375 26.74203125 13.33984375 27.40203125 13.33984375 28.08203125 C-0.10062665 33.32258163 -13.98809063 27.84907888 -26.73754883 23.04931641 C-28.8258464 21.9986707 -30.03045501 20.73425523 -31.66015625 19.08203125 C-32.65015625 18.75203125 -33.64015625 18.42203125 -34.66015625 18.08203125 C-34.66015625 17.42203125 -34.66015625 16.76203125 -34.66015625 16.08203125 C-35.23507812 15.80875 -35.81 15.53546875 -36.40234375 15.25390625 C-41.42723692 12.64583021 -45.82088007 9.97040267 -48.16015625 4.70703125 C-48.32515625 3.84078125 -48.49015625 2.97453125 -48.66015625 2.08203125 C-49.32015625 2.08203125 -49.98015625 2.08203125 -50.66015625 2.08203125 C-51.13453125 1.11265625 -51.60890625 0.14328125 -52.09765625 -0.85546875 C-53.36209572 -3.72274312 -53.36209572 -3.72274312 -54.66015625 -4.91796875 C-54.70096408 -6.91755239 -54.70269981 -8.91842129 -54.66015625 -10.91796875 C-33.8926234 -13.51131701 -17.34413905 -12.50509879 0 0 Z " fill="#E78296" transform="translate(471.66015625,411.91796875)"/>
<path d="M0 0 C3.40094661 1.2129656 5.77235028 2.44276503 8.375 4.9375 C15.20514473 10.95036245 23.29535157 12.15435274 32 14 C31.67 13.401875 31.34 12.80375 31 12.1875 C30 10 30 10 30 7 C36.62743492 7.92177352 41.60242988 11.90690836 45.65625 17.13671875 C49.94430366 23.88043104 51.07237363 29.65462991 49.4921875 37.53125 C47.4281982 44.02379886 43.85235217 47.82136951 38.20703125 51.5546875 C31.81520311 54.43529214 25.22976839 54.16335442 18.54296875 52.32421875 C12.29491238 49.61234725 7.97628729 44.46216681 5.125 38.375 C4.1003872 35.30116161 3.70942515 33.19632338 4 30 C5.32 30 6.64 30 8 30 C7.59007812 29.38253906 7.18015625 28.76507812 6.7578125 28.12890625 C0.73342851 18.6599582 -0.37385056 11.11166955 0 0 Z " fill="#4A557B" transform="translate(191,527)"/>
<path d="M0 0 C2.9375 1 2.9375 1 5 2 C5 2.66 5 3.32 5 4 C3.02 4.99 3.02 4.99 1 6 C0.97287934 7.43739513 0.95354933 8.87493863 0.9375 10.3125 C0.92589844 11.11300781 0.91429687 11.91351563 0.90234375 12.73828125 C0.90342145 15.16861334 0.90342145 15.16861334 2 18 C5.43793339 17.81870185 5.43793339 17.81870185 9 17 C10.51294288 15.06402968 10.51294288 15.06402968 11 13 C11.66 13 12.32 13 13 13 C16.34569895 18.4200323 15.53931344 24.87879244 15 31 C13.36559482 37.35189284 9.70076072 42.48726971 5 47 C0.95481482 49.02259259 -3.62259588 48.70298393 -8 48 C-13.33795358 45.18544266 -17.22155564 40.46156779 -19.37109375 34.8515625 C-21.12566943 26.89603304 -21.72687967 17.25362584 -18 9.8125 C-13.54208825 3.33971289 -8.17061185 -1.2332999 0 0 Z " fill="#353538" transform="translate(560,253)"/>
<path d="M0 0 C1.19109375 -0.00386719 1.19109375 -0.00386719 2.40625 -0.0078125 C4.5 0.125 4.5 0.125 6.5 1.125 C4.625 5 4.625 5 3.5 6.125 C2.99854072 11.36773795 2.99854072 11.36773795 4.6875 16.125 C7.19461993 17.50823858 8.6819827 17.61815303 11.5 17.125 C13.20532323 15.18490478 13.20532323 15.18490478 14.5 13.125 C15.16 13.125 15.82 13.125 16.5 13.125 C19.17684893 18.47869786 18.07140835 27.35894683 16.88671875 33.09375 C14.75144495 39.18915714 11.35170199 44.15180514 5.5 47.125 C0.71614569 48.0918157 -3.94137943 48.2921795 -8.4609375 46.23046875 C-12.93320539 42.83653957 -15.76324614 37.76503468 -17.25 32.4375 C-18.55953881 15.08611081 -18.55953881 15.08611081 -14.5 8.125 C-10.21168616 3.46836473 -6.46905254 -0.02100342 0 0 Z " fill="#353537" transform="translate(429.5,253.875)"/>
<path d="M0 0 C0.26039063 0.59039063 0.52078125 1.18078125 0.7890625 1.7890625 C5.45363981 10.30567785 16.18833206 15.06277735 25 18 C33.23578704 18.66103028 40.04442694 18.23390632 47.59765625 14.77734375 C50.4546406 13.85288865 52.14625072 14.19118336 55 15 C55.50377768 17.26999825 56.00290019 19.54103003 56.5 21.8125 C56.7784375 23.07707031 57.056875 24.34164062 57.34375 25.64453125 C58 29 58 29 58 32 C43.22642274 37.36060687 27.32077207 36.24122396 13 30 C5.5075495 26.02912267 -2.39675178 19.13113368 -7 12 C-7 11.34 -7 10.68 -7 10 C-7.99 9.67 -8.98 9.34 -10 9 C-8.71283353 7.99421411 -7.42011342 6.99553202 -6.125 6 C-5.40570313 5.443125 -4.68640625 4.88625 -3.9453125 4.3125 C-2 3 -2 3 0 3 C0 2.01 0 1.02 0 0 Z " fill="#8484B2" transform="translate(237,569)"/>
<path d="M0 0 C0.14695312 1.35931641 0.14695312 1.35931641 0.296875 2.74609375 C0.44640625 3.96425781 0.5959375 5.18242187 0.75 6.4375 C0.88921875 7.63246094 1.0284375 8.82742188 1.171875 10.05859375 C2.56043941 18.15478701 7.2329718 25.61519309 11 32.8125 C11.42539062 33.64458984 11.85078125 34.47667969 12.2890625 35.33398438 C14.44793236 39.46298854 16.38189035 42.94303236 20 46 C19.3125 47.9375 19.3125 47.9375 18 50 C12.44608635 52.01960496 5.83469939 51.5908354 0.3125 49.8125 C-8.19082438 45.1597376 -11.90016269 39.4995739 -15.3125 30.5625 C-16.68981225 23.42551836 -16.95300368 17.33547443 -13.27734375 10.88671875 C-5.9068323 0 -5.9068323 0 0 0 Z " fill="#414C77" transform="translate(730,395)"/>
<path d="M0 0 C4.66122078 1.30425256 9.21720216 3.96730395 12.13671875 7.91015625 C14.28746518 13.11671435 14.03835789 18.55778304 13 24 C9.06861209 31.50438963 1.57971669 35.74608122 -6 39 C-6.66 39 -7.32 39 -8 39 C-10.31175497 33.96037417 -11.87531857 29.08112506 -13.125 23.6875 C-14.1896771 18.71692517 -14.1896771 18.71692517 -16 14 C-16.14745376 12.00370297 -16.22113182 10.00152719 -16.25 8 C-16.27578125 6.9275 -16.3015625 5.855 -16.328125 4.75 C-16.21984375 3.8425 -16.1115625 2.935 -16 2 C-11.09811708 -1.26792195 -5.7283244 -0.54232657 0 0 Z " fill="#475378" transform="translate(231,702)"/>
<path d="M0 0 C3.66330917 2.23728052 6.59663301 4.48337273 9.3125 7.8125 C9.3125 8.8025 9.3125 9.7925 9.3125 10.8125 C8.19875 11.328125 7.085 11.84375 5.9375 12.375 C-0.57939073 15.65056504 -6.39542061 19.92574629 -12.0390625 24.5234375 C-12.61309814 24.98476074 -13.18713379 25.44608398 -13.77856445 25.92138672 C-14.90790975 26.83402457 -16.02676599 27.7598299 -17.13354492 28.69970703 C-19.79375475 30.84521063 -21.0924111 31.85759469 -24.57421875 31.59375 C-25.27160156 31.3359375 -25.96898437 31.078125 -26.6875 30.8125 C-29.32057814 24.7235068 -29.86942123 17.93860826 -28.03515625 11.53515625 C-25.35154932 5.53447295 -20.90605636 1.6280959 -15.25 -1.5625 C-9.35086363 -3.00131375 -5.32828793 -2.81929378 0 0 Z " fill="#444F77" transform="translate(659.6875,694.1875)"/>
<path d="M0 0 C1.65924328 2.63526875 1.44151687 4.65536506 1.0625 7.6875 C-0.13427734 9.36328125 -0.13427734 9.36328125 -1.9375 10.6875 C-4.33837891 10.98046875 -4.33837891 10.98046875 -7.1640625 10.875 C-8.19660156 10.85179687 -9.22914063 10.82859375 -10.29296875 10.8046875 C-12.44924898 10.72740147 -14.60549998 10.64929487 -16.76171875 10.5703125 C-25.41369785 10.37733155 -32.4677957 11.54127708 -39.6875 16.5625 C-40.43 17.078125 -41.1725 17.59375 -41.9375 18.125 C-44.16763394 19.79004234 -44.16763394 19.79004234 -46.6875 22.5625 C-48.9375 24.6875 -48.9375 24.6875 -51.6875 25.0625 C-53.9375 24.6875 -53.9375 24.6875 -54.9375 23.6875 C-55.56468886 19.92436685 -55.57763961 17.82730971 -53.69140625 14.46875 C-42.06366731 -1.21392792 -17.86957405 -12.10519532 0 0 Z " fill="#4A527E" transform="translate(439.9375,209.3125)"/>
<path d="M0 0 C1.10214844 -0.01836914 1.10214844 -0.01836914 2.2265625 -0.03710938 C15.92508552 -0.07328505 25.74509328 5.67711725 35.625 14.78515625 C38.92330528 18.30678428 39.83854345 20.09380352 40 24.9375 C39.95875 26.01 39.9175 27.0825 39.875 28.1875 C37.61328125 28.8828125 37.61328125 28.8828125 34.875 29.1875 C32.91796875 27.9296875 32.91796875 27.9296875 31.0625 26.0625 C23.96220061 19.36334747 16.76904092 14.81124056 6.70703125 15.09765625 C4.99676758 15.12762695 4.99676758 15.12762695 3.25195312 15.15820312 C0.86383681 15.2197053 -1.52418844 15.28484508 -3.91210938 15.35351562 C-5.04841797 15.37220703 -6.18472656 15.39089844 -7.35546875 15.41015625 C-8.90850708 15.45281616 -8.90850708 15.45281616 -10.49291992 15.49633789 C-13.125 15.1875 -13.125 15.1875 -14.9855957 13.88842773 C-16.125 12.1875 -16.125 12.1875 -16.125 8.75 C-14.95253716 4.57310114 -13.72723375 3.47184335 -10.125 1.1875 C-6.93405006 -0.40797497 -3.50112737 0.00297715 0 0 Z " fill="#4A5380" transform="translate(558.125,204.8125)"/>
<path d="M0 0 C4.51370618 2.71334322 7.94833991 6.31855482 10.31640625 11.0546875 C10.69140625 14.4921875 10.69140625 14.4921875 10.31640625 18.0546875 C6.57538359 21.08794911 2.84237364 22.18607734 -1.9140625 22.15234375 C-2.71650391 22.14912109 -3.51894531 22.14589844 -4.34570312 22.14257812 C-5.59577148 22.13000977 -5.59577148 22.13000977 -6.87109375 22.1171875 C-7.71607422 22.11267578 -8.56105469 22.10816406 -9.43164062 22.10351562 C-11.5156553 22.09174153 -13.59963352 22.0738064 -15.68359375 22.0546875 C-17.02947701 19.49811015 -18.36034703 16.93544845 -19.68359375 14.3671875 C-20.06515625 13.64595703 -20.44671875 12.92472656 -20.83984375 12.18164062 C-22.79980215 8.34922197 -24.24233628 5.48097601 -23.68359375 1.0546875 C-16.94387574 -2.20393344 -7.07709164 -2.49294931 0 0 Z " fill="#495479" transform="translate(248.68359375,740.9453125)"/>
<path d="M0 0 C2.58790414 2.30275944 4.46582891 4.69347301 6.46484375 7.51953125 C7.12742187 8.44636719 7.79 9.37320312 8.47265625 10.328125 C11.92529925 15.42041227 13.7299636 18.86125372 14.33984375 25.08203125 C15.82484375 25.57703125 15.82484375 25.57703125 17.33984375 26.08203125 C16.01984375 26.08203125 14.69984375 26.08203125 13.33984375 26.08203125 C13.33984375 26.74203125 13.33984375 27.40203125 13.33984375 28.08203125 C-0.10062665 33.32258163 -13.98809063 27.84907888 -26.73754883 23.04931641 C-28.8258464 21.9986707 -30.03045501 20.73425523 -31.66015625 19.08203125 C-32.65015625 18.75203125 -33.64015625 18.42203125 -34.66015625 18.08203125 C-34.66015625 17.42203125 -34.66015625 16.76203125 -34.66015625 16.08203125 C-35.23507812 15.80875 -35.81 15.53546875 -36.40234375 15.25390625 C-41.42723692 12.64583021 -45.82088007 9.97040267 -48.16015625 4.70703125 C-48.32515625 3.84078125 -48.49015625 2.97453125 -48.66015625 2.08203125 C-49.32015625 2.08203125 -49.98015625 2.08203125 -50.66015625 2.08203125 C-51.13453125 1.11265625 -51.60890625 0.14328125 -52.09765625 -0.85546875 C-53.36209572 -3.72274312 -53.36209572 -3.72274312 -54.66015625 -4.91796875 C-54.70096408 -6.91755239 -54.70269981 -8.91842129 -54.66015625 -10.91796875 C-33.8926234 -13.51131701 -17.34413905 -12.50509879 0 0 Z M-48.66015625 -7.91796875 C-48.55831915 -6.00372418 -48.55831915 -6.00372418 -48.22265625 -3.85546875 C-48.03703125 -2.55609375 -47.85140625 -1.25671875 -47.66015625 0.08203125 C-47.04140625 0.14390625 -46.42265625 0.20578125 -45.78515625 0.26953125 C-43.66015625 1.08203125 -43.66015625 1.08203125 -42.59765625 3.45703125 C-42.28828125 4.32328125 -41.97890625 5.18953125 -41.66015625 6.08203125 C-40.01747165 8.17272074 -39.21449108 8.96444507 -36.59765625 9.51953125 C-35.95828125 9.70515625 -35.31890625 9.89078125 -34.66015625 10.08203125 C-34.39203125 10.68015625 -34.12390625 11.27828125 -33.84765625 11.89453125 C-31.95314859 15.38441378 -29.19483274 16.34569894 -25.66015625 18.08203125 C-24.67015625 18.08203125 -23.68015625 18.08203125 -22.66015625 18.08203125 C-22.66015625 18.74203125 -22.66015625 19.40203125 -22.66015625 20.08203125 C-13.230653 23.57443986 -1.58294956 27.38962902 8.33984375 24.08203125 C8.99984375 23.75203125 9.65984375 23.42203125 10.33984375 23.08203125 C10.16577666 17.79066525 10.16577666 17.79066525 7.83984375 13.33203125 C7.34484375 12.91953125 6.84984375 12.50703125 6.33984375 12.08203125 C5.65234375 9.89453125 5.65234375 9.89453125 5.33984375 8.08203125 C4.01984375 7.75203125 2.69984375 7.42203125 1.33984375 7.08203125 C0.84484375 5.10203125 0.84484375 5.10203125 0.33984375 3.08203125 C-0.65015625 3.08203125 -1.64015625 3.08203125 -2.66015625 3.08203125 C-3.15515625 1.59703125 -3.15515625 1.59703125 -3.66015625 0.08203125 C-6.55524507 -3.41204146 -9.17796454 -4.7547634 -13.47265625 -6.10546875 C-14.46910156 -6.42902344 -15.46554687 -6.75257813 -16.4921875 -7.0859375 C-23.51552904 -8.93053891 -30.32501669 -9.07268086 -37.53515625 -9.04296875 C-38.49679687 -9.04683594 -39.4584375 -9.05070312 -40.44921875 -9.0546875 C-41.81820313 -9.05275391 -41.81820313 -9.05275391 -43.21484375 -9.05078125 C-44.04483887 -9.04965332 -44.87483398 -9.04852539 -45.72998047 -9.04736328 C-47.6673467 -9.13018716 -47.6673467 -9.13018716 -48.66015625 -7.91796875 Z " fill="#C98CA8" transform="translate(471.66015625,411.91796875)"/>
<path d="M0 0 C5.53924615 1.81629441 9.66963429 7.47655169 13.39453125 11.78515625 C14.01714844 12.460625 14.63976562 13.13609375 15.28125 13.83203125 C16.39453125 15.78515625 16.39453125 15.78515625 16.08203125 18.53515625 C15.85515625 19.27765625 15.62828125 20.02015625 15.39453125 20.78515625 C14.27175781 21.0996875 13.14898438 21.41421875 11.9921875 21.73828125 C4.19204861 23.95706866 -3.30099088 26.19932166 -10.60546875 29.78515625 C-14.66134233 23.43683239 -15.7502869 17.29007522 -14.60546875 9.78515625 C-11.50983502 4.26003782 -6.61238666 -0.08587515 0 0 Z " fill="#455078" transform="translate(682.60546875,673.21484375)"/>
<path d="M0 0 C10.86971707 0.03850669 17.74418671 1.82081415 25.9453125 9.3125 C27.5625 11.25 27.5625 11.25 27.5625 14.25 C20.46058338 18.3128567 12.75975394 18.64897139 4.86328125 16.5234375 C2.61774139 15.58557196 0.62277146 14.54189153 -1.4375 13.25 C-2.0459375 12.87617188 -2.654375 12.50234375 -3.28125 12.1171875 C-6.49918532 9.82516753 -7.41090526 8.35637897 -8.375 4.5 C-8.395625 3.4275 -8.41625 2.355 -8.4375 1.25 C-6.45599428 -0.73150572 -2.70173841 0.0097349 0 0 Z " fill="#4F5885" transform="translate(694.4375,235.75)"/>
<path d="M0 0 C0.99 0 1.98 0 3 0 C3.1938211 2.97888126 3.38035102 5.95790246 3.5625 8.9375 C3.61857422 9.78763672 3.67464844 10.63777344 3.73242188 11.51367188 C3.78076172 12.32255859 3.82910156 13.13144531 3.87890625 13.96484375 C3.9260376 14.7137085 3.97316895 15.46257324 4.02172852 16.23413086 C4 18 4 18 3 19 C-3.2165177 19.32718514 -9.61121801 19.40539849 -14.87109375 15.671875 C-16.5625 14.125 -16.5625 14.125 -19 11 C-18.94140625 8.97265625 -18.94140625 8.97265625 -18 7 C-12.81794231 3.31696666 -7.26271729 1.53299722 -1 1 C-0.67 0.67 -0.34 0.34 0 0 Z " fill="#465078" transform="translate(725,375)"/>
<path d="M0 0 C1.50240234 -0.01836914 1.50240234 -0.01836914 3.03515625 -0.03710938 C3.99550781 -0.03904297 4.95585938 -0.04097656 5.9453125 -0.04296875 C6.81945801 -0.04707764 7.69360352 -0.05118652 8.59423828 -0.05541992 C10.875 0.1875 10.875 0.1875 13.875 2.1875 C13.875 2.8475 13.875 3.5075 13.875 4.1875 C13.285979 4.17702637 12.69695801 4.16655273 12.09008789 4.15576172 C9.37260354 4.11370446 6.65518804 4.0880182 3.9375 4.0625 C3.01130859 4.04574219 2.08511719 4.02898437 1.13085938 4.01171875 C-11.56345544 3.92263584 -23.32500044 7.38566552 -33.10546875 15.73046875 C-35.52861231 18.15361231 -37.8408833 20.63390885 -40.125 23.1875 C-41.45033926 24.52877976 -42.78106713 25.86485114 -44.125 27.1875 C-43.1137101 18.84435833 -38.16246995 13.58376468 -32.0546875 8.2734375 C-22.30607159 1.33242297 -11.58297285 0.00751166 0 0 Z " fill="#505584" transform="translate(523.125,310.8125)"/>
<path d="M0 0 C0.495 0.99 0.495 0.99 1 2 C-2.817629 2.06697595 -6.35208377 2.1036666 -10.125 1.5 C-24.73481684 -0.38513766 -37.97151793 1.63888828 -50.06640625 10.44140625 C-52.64372461 12.51888105 -55.15592778 14.6544015 -57.58984375 16.8984375 C-59 18 -59 18 -61 18 C-58.40979573 10.14759128 -50.95754123 5.1205473 -44.0390625 1.02734375 C-29.9067678 -6.09295032 -14.56413755 -5.27156366 0 0 Z " fill="#4E5382" transform="translate(523,300)"/>
<path d="M0 0 C0.33 0 0.66 0 1 0 C1.78812347 19.60851184 0.86936365 39.38209852 -6 58 C-8.53552912 56.73223544 -8.84919575 55.53176935 -10 53 C-10.33 52.34 -10.66 51.68 -11 51 C-10.62241605 49.07834423 -10.15070804 47.17490373 -9.63671875 45.28515625 C-9.32669922 44.12306641 -9.01667969 42.96097656 -8.69726562 41.76367188 C-8.36404297 40.54228516 -8.03082031 39.32089844 -7.6875 38.0625 C-5.43351928 29.74671142 -3.36685538 21.51072288 -2 13 C-1.79117188 11.70707031 -1.58234375 10.41414062 -1.3671875 9.08203125 C-1.20476563 8.00308594 -1.04234375 6.92414062 -0.875 5.8125 C-0.70742188 4.70519531 -0.53984375 3.59789062 -0.3671875 2.45703125 C-0.24601563 1.64621094 -0.12484375 0.83539062 0 0 Z " fill="#8483AE" transform="translate(611,534)"/>
<path d="M0 0 C-0.33 0.66 -0.66 1.32 -1 2 C-2.63090565 2.4717258 -4.28073289 2.87918842 -5.9375 3.25 C-10.01428087 4.331951 -10.01428087 4.331951 -12.625 7.5 C-12.74875 8.655 -12.8725 9.81 -13 11 C-13.10054688 11.81984375 -13.20109375 12.6396875 -13.3046875 13.484375 C-13.8357055 21.00358982 -11.73660086 26.17702279 -7 32 C-3.86847365 34.67280667 -0.94811987 35.83351004 3 37 C3 37.66 3 38.32 3 39 C-2.63108944 39.45968077 -6.6387962 38.61271344 -11 35 C-16.98566136 28.19383225 -18.470113 23.67461172 -18.4140625 14.56640625 C-17.66977136 8.15567218 -14.36869352 4.9435434 -9.5625 1 C-6.27197592 -0.28410696 -3.49867072 -0.20580416 0 0 Z " fill="#545886" transform="translate(312,686)"/>
<path d="M0 0 C0.495 1.485 0.495 1.485 1 3 C-0.33023284 5.29129555 -1.6771648 7.32141016 -3.25 9.4375 C-3.70455566 10.05858643 -4.15911133 10.67967285 -4.62744141 11.31958008 C-19.91434869 31.82851162 -42.45884758 52.45967896 -67 61 C-67.99 60.67 -68.98 60.34 -70 60 C-69.26849731 59.60059204 -69.26849731 59.60059204 -68.5222168 59.19311523 C-59.87227011 54.45912604 -51.28187097 49.74146348 -43.06640625 44.27734375 C-41 43 -41 43 -38 42 C-36.79117904 39.99983534 -36.79117904 39.99983534 -36 38 C-35.01 38 -34.02 38 -33 38 C-33 37.34 -33 36.68 -33 36 C-32.01 35.67 -31.02 35.34 -30 35 C-29.175 34.175 -28.35 33.35 -27.5 32.5 C-25 30 -25 30 -22 29 C-21.29376322 27.68719696 -20.63289292 26.3496921 -20 25 C-18.87524369 23.57018007 -17.70606609 22.1744348 -16.5 20.8125 C-15.58734375 19.77029297 -15.58734375 19.77029297 -14.65625 18.70703125 C-13 17 -13 17 -11 16 C-10.67 15.01 -10.34 14.02 -10 13 C-9.34 13 -8.68 13 -8 13 C-7.79375 12.34 -7.5875 11.68 -7.375 11 C-5.48847129 6.88393737 -2.79432021 3.5412297 0 0 Z " fill="#8989AD" transform="translate(700,337)"/>
<path d="M0 0 C0.495 1.485 0.495 1.485 1 3 C-0.55847656 3.11214844 -0.55847656 3.11214844 -2.1484375 3.2265625 C-11.1142116 4.01648906 -17.66126483 5.41617976 -25 11 C-26.3921875 11.9590625 -26.3921875 11.9590625 -27.8125 12.9375 C-31.49276212 16.40746143 -34.39490903 20.18472708 -36 25 C-36.66 25 -37.32 25 -38 25 C-38.83355551 19.58188918 -36.95431607 16.49539679 -33.89453125 12.24609375 C-24.5309767 1.14497238 -13.93853495 -0.5898753 0 0 Z " fill="#4D5180" transform="translate(549,324)"/>
<path d="M0 0 C-2.42634022 2.62853524 -4.9772347 4.74187461 -7.875 6.8125 C-16.67873672 13.34166533 -21.36767441 21.47069765 -24 32 C-24.66 31.67 -25.32 31.34 -26 31 C-26.9697242 23.04210455 -25.70027259 18.07083105 -21.0703125 11.51953125 C-15.14806979 4.31227361 -9.65614874 -0.4491232 0 0 Z " fill="#505585" transform="translate(567,331)"/>
<path d="M0 0 C5.34869922 -0.50939993 7.85589601 0.63291551 12 4 C16.93068204 9.16055066 19.14653615 12.08343462 19.1875 19.375 C19.20167969 20.51710938 19.21585937 21.65921875 19.23046875 22.8359375 C19.01170034 25.83936816 18.57080637 27.47925934 17 30 C16.34 30 15.68 30 15 30 C14.99613281 28.62328125 14.99613281 28.62328125 14.9921875 27.21875 C14.73443433 19.03938267 14.02531607 13.74945822 8 8 C5.42438701 5.72387689 2.85844362 3.90562908 0 2 C0 1.34 0 0.68 0 0 Z " fill="#505384" transform="translate(317,686)"/>
<path d="M0 0 C1.5859375 1.24609375 1.5859375 1.24609375 3.109375 2.7734375 C4.72222328 4.47765223 4.72222328 4.47765223 7.5859375 6.24609375 C7.5859375 7.23609375 7.5859375 8.22609375 7.5859375 9.24609375 C4.81536346 8.29618265 2.73352919 7.36763985 0.4609375 5.49609375 C-13.10362203 -5.11964849 -28.14550388 -6.17605107 -44.78027344 -4.51806641 C-46.66092996 -4.28432885 -48.53802652 -4.02221803 -50.4140625 -3.75390625 C-50.4140625 -4.41390625 -50.4140625 -5.07390625 -50.4140625 -5.75390625 C-34.00965507 -10.60728123 -14.44639305 -9.62041459 0 0 Z " fill="#654D72" transform="translate(468.4140625,405.75390625)"/>
<path d="M0 0 C1.2691626 0.01800659 1.2691626 0.01800659 2.56396484 0.03637695 C12.69224504 0.26536924 20.10906758 1.84408383 28.75 7.3125 C25.57184788 8.36953507 23.98251613 8.28946236 20.9375 6.9375 C13.88434426 3.82538592 6.36559725 4.1828843 -1.1875 4.25 C-2.6425293 4.25676758 -2.6425293 4.25676758 -4.12695312 4.26367188 C-6.5013676 4.2753685 -8.87565021 4.29175914 -11.25 4.3125 C-11.25 6.6225 -11.25 8.9325 -11.25 11.3125 C-11.91 11.3125 -12.57 11.3125 -13.25 11.3125 C-13.91 8.6725 -14.57 6.0325 -15.25 3.3125 C-10.03109206 0.12223208 -5.92392635 -0.12918766 0 0 Z " fill="#DB8FA6" transform="translate(435.25,399.6875)"/>
<path d="M0 0 C-1.33797029 2.88619305 -2.87732396 5.21886925 -4.875 7.6875 C-13.44634369 18.941318 -14.31811418 32.14053663 -12.65625 45.83203125 C-11.74654203 50.28201939 -10.15555861 53.98282259 -8 58 C-8 58.66 -8 59.32 -8 60 C-11 59 -11 59 -12.1328125 56.7421875 C-16.90615806 42.9483464 -17.69709914 29.3518776 -12.75 15.5 C-5 0 -5 0 0 0 Z " fill="#9A9CBB" transform="translate(547,239)"/>
<path d="M0 0 C1.32 0 2.64 0 4 0 C2.6716729 2.76734813 1.18745917 5.31294308 -0.5 7.875 C-4.76152631 14.705976 -5.46488043 21.08586315 -6 29 C-6.66 29 -7.32 29 -8 29 C-9.14330513 25.57008462 -9.20381651 22.8013584 -9.25 19.1875 C-9.28867187 17.38345703 -9.28867187 17.38345703 -9.328125 15.54296875 C-8.72441637 9.02435292 -5.70207831 5.3308616 -1 1 C-0.67 0.67 -0.34 0.34 0 0 Z " fill="#4B4F7F" transform="translate(598,330)"/>
<path d="M0 0 C6.43686715 2.20692588 10.24102653 5.94662771 14.125 11.4375 C15.11886719 12.82775391 15.11886719 12.82775391 16.1328125 14.24609375 C19.7247818 19.54387274 21.50649348 22.4155848 21 29 C20 30 20 30 16.62109375 30.09765625 C15.22652923 30.09098369 13.83198257 30.07902532 12.4375 30.0625 C11.72658203 30.05798828 11.01566406 30.05347656 10.28320312 30.04882812 C8.52209987 30.03700864 6.76103964 30.01907263 5 30 C5 29.34 5 28.68 5 28 C7.9296875 28.04882812 7.9296875 28.04882812 10.859375 28.09765625 C13.33999176 28.05530256 13.33999176 28.05530256 17 27 C16.505 22.05 16.505 22.05 16 17 C15.01 16.67 14.02 16.34 13 16 C13 14.68 13 13.36 13 12 C12.0409375 11.8453125 12.0409375 11.8453125 11.0625 11.6875 C10.0415625 11.3471875 10.0415625 11.3471875 9 11 C8.67 10.01 8.34 9.02 8 8 C7.01 7.67 6.02 7.34 5 7 C2.3125 4.5625 2.3125 4.5625 0 2 C0 1.34 0 0.68 0 0 Z " fill="#CC8AA5" transform="translate(464,408)"/>
<path d="M0 0 C0.66 0 1.32 0 2 0 C2.55277951 3.64834476 1.89650872 5.19318371 0.125 8.5 C-3.84715358 13.61344841 -9.40052175 16.46617907 -15.765625 17.41015625 C-22.26697111 17.62876877 -22.26697111 17.62876877 -24.78515625 15.46875 C-25.38650391 14.74171875 -25.38650391 14.74171875 -26 14 C-25.29875 13.97421875 -24.5975 13.9484375 -23.875 13.921875 C-16.54272188 13.48353229 -10.60550247 12.52677971 -5.2109375 7.25 C-3.17753675 4.93712711 -1.37979113 2.75958226 0 0 Z " fill="#555787" transform="translate(646,655)"/>
<path d="M0 0 C0 0.66 0 1.32 0 2 C-0.96099609 2.4021875 -0.96099609 2.4021875 -1.94140625 2.8125 C-8.93282023 5.97999605 -14.48917762 9.97835523 -18 17 C-18.66 17 -19.32 17 -20 17 C-20.63862405 12.74250636 -19.8879838 10.32144149 -17.5 6.875 C-12.80993622 1.11197351 -7.49283376 -2.24785013 0 0 Z " fill="#515685" transform="translate(639,642)"/>
<path d="M0 0 C3.21095557 1.03883857 5.14218799 2.1247479 7.70703125 4.375 C10.99901147 7.16188025 14.52107431 8.86004512 18.5625 10.3125 C19.28123291 10.5710376 19.99996582 10.8295752 20.74047852 11.09594727 C28.92144651 13.72967153 43.00149921 15.9992504 51 12 C51.66 11.01 52.32 10.02 53 9 C53 9.99 53 10.98 53 12 C53.99 12.33 54.98 12.66 56 13 C54.68 13 53.36 13 52 13 C52 13.66 52 14.32 52 15 C38.5595296 20.24055038 24.67206562 14.76704763 11.92260742 9.96728516 C9.83430985 8.91663945 8.62970124 7.65222398 7 6 C6.01 5.67 5.02 5.34 4 5 C4 4.34 4 3.68 4 3 C2.68 2.34 1.36 1.68 0 1 C0 0.67 0 0.34 0 0 Z " fill="#AE92B7" transform="translate(433,425)"/>
<path d="M0 0 C0.33 0 0.66 0 1 0 C0.59254767 5.70433262 -0.47447026 10.75081573 -2.0625 16.25 C-4.78565818 26.05336944 -4.38258059 35.91164409 -4 46 C-5.9098033 44.40025441 -6.89971748 43.47727485 -7.41992188 41.00146484 C-7.47415693 38.45729837 -7.51668349 35.91990864 -7.5 33.375 C-7.49790527 32.44236328 -7.49581055 31.50972656 -7.49365234 30.54882812 C-7.25038926 19.63727193 -4.12738896 10.02916945 0 0 Z " fill="#545A78" transform="translate(136,397)"/>
<path d="M0 0 C0 0.99 0 1.98 0 3 C-2.64 2.67 -5.28 2.34 -8 2 C-8 1.34 -8 0.68 -8 0 C-12.12596703 -0.02492452 -16.25190422 -0.04296521 -20.37792969 -0.05493164 C-21.77832809 -0.05992616 -23.17872137 -0.06672408 -24.57910156 -0.07543945 C-33.70774869 -0.21089372 -33.70774869 -0.21089372 -42.78125 0.62890625 C-46 1 -46 1 -49 -1 C-33.23222487 -4.79782971 -15.54825535 -4.52704835 0 0 Z " fill="#9FA1BD" transform="translate(668,116)"/>
<path d="M0 0 C0.70125 0.721875 1.4025 1.44375 2.125 2.1875 C7.92551994 7.95534095 13.33082123 13.04422278 21.8125 13.4375 C26.49481056 13.3172594 29.96840833 12.0292167 34.08984375 9.875 C36 9 36 9 39 9 C32.5504886 15.80781759 32.5504886 15.80781759 26.94140625 16.23046875 C25.26884766 16.20919922 25.26884766 16.20919922 23.5625 16.1875 C22.45003906 16.18105469 21.33757813 16.17460937 20.19140625 16.16796875 C17.34899116 16.01836796 14.76598453 15.64625807 12 15 C12 14.01 12 13.02 12 12 C11.236875 11.87625 10.47375 11.7525 9.6875 11.625 C7 11 7 11 4 9 C4 8.34 4 7.68 4 7 C3.34 7 2.68 7 2 7 C0 4 0 4 0 0 Z " fill="#9FA0BE" transform="translate(540,300)"/>
<path d="M0 0 C0.66 0.33 1.32 0.66 2 1 C0.27042569 4.56724701 -1.83173371 6.85018266 -4.8125 9.375 C-11.47847434 15.04351103 -15.92695972 21.2169849 -20.38671875 28.7421875 C-22 31 -22 31 -25 32 C-25 32.99 -25 33.98 -25 35 C-25.66 35 -26.32 35 -27 35 C-21.67458127 20.79888338 -10.52569921 10.46313933 0 0 Z " fill="#A3A6C3" transform="translate(183,134)"/>
<path d="M0 0 C2.31 0 4.62 0 7 0 C6.484375 0.350625 5.96875 0.70125 5.4375 1.0625 C3.63910834 3.07488597 3.63910834 3.07488597 4.0625 6.5625 C4.371875 7.696875 4.68125 8.83125 5 10 C5.60199219 10.28488281 6.20398438 10.56976563 6.82421875 10.86328125 C9.90086563 12.47064973 10.97050455 14.6819883 12.75 17.625 C13.36359375 18.62789063 13.9771875 19.63078125 14.609375 20.6640625 C15.29773438 21.82035156 15.29773438 21.82035156 16 23 C11.98152859 23 10.84436477 21.77143234 8 19 C6.6875 15.75 6.6875 15.75 6 13 C5.34 13 4.68 13 4 13 C3.525625 12.030625 3.05125 11.06125 2.5625 10.0625 C1.29806053 7.19522563 1.29806053 7.19522563 0 6 C-0.04080783 4.00041636 -0.04254356 1.99954746 0 0 Z " fill="#B890B3" transform="translate(417,401)"/>
<path d="M0 0 C2.04235976 2.27962706 2.37945161 3.91101288 2.71484375 6.9140625 C3.37484375 6.9140625 4.03484375 6.9140625 4.71484375 6.9140625 C6.27734375 9.7265625 6.27734375 9.7265625 7.71484375 12.9140625 C7.38484375 13.9040625 7.05484375 14.8940625 6.71484375 15.9140625 C6.30234375 15.20121094 5.88984375 14.48835938 5.46484375 13.75390625 C0.20613591 5.0324332 -5.26126981 -1.92049968 -15.28515625 -5.0859375 C-18.27969478 -5.57063043 -21.25885248 -5.88692886 -24.28515625 -6.0859375 C-24.28515625 -6.4159375 -24.28515625 -6.7459375 -24.28515625 -7.0859375 C-14.75469382 -9.36496113 -7.51894997 -5.78787361 0 0 Z " fill="#9D9EBE" transform="translate(444.28515625,241.0859375)"/>
<path d="M0 0 C-1.34881831 2.8967479 -2.90244861 5.30337375 -4.875 7.8125 C-7.61637186 11.39375294 -9.85333685 15.03692957 -12 19 C-12.33 19 -12.66 19 -13 19 C-13.6141074 14.78897781 -13.87400649 11.38854256 -11.546875 7.69140625 C-4.82924312 0 -4.82924312 0 0 0 Z " fill="#525684" transform="translate(578,333)"/>
<path d="M0 0 C0.33 0 0.66 0 1 0 C2.27766314 7.20137405 1.52686664 12.16175638 -1 19 C-3.53552912 17.73223544 -3.84919575 16.53176935 -5 14 C-5.33 13.34 -5.66 12.68 -6 12 C-5.39239518 9.6505947 -4.72870472 7.31470912 -4 5 C-2.68 4.67 -1.36 4.34 0 4 C0 2.68 0 1.36 0 0 Z " fill="#8D8BB3" transform="translate(606,573)"/>
<path d="M0 0 C-3.06087931 3.31595259 -6.45796729 5.90144658 -10.09765625 8.53515625 C-12.03107713 9.94939676 -12.03107713 9.94939676 -13.62109375 11.68359375 C-15 13 -15 13 -17 13 C-16.66666667 11.66666667 -16.33333333 10.33333333 -16 9 C-15.938125 8.34 -15.87625 7.68 -15.8125 7 C-14.50155324 3.77305413 -11.92966887 2.69920795 -9 1 C-5.8035914 -0.06546953 -3.34252724 -0.07427838 0 0 Z " fill="#4A4E7E" transform="translate(567,331)"/>
<path d="M0 0 C0.99 0 1.98 0 3 0 C4.17368347 8.10265818 4.50742536 15.41535094 1 23 C-0.84185106 25.19016673 -2.57899198 26.35371455 -5 28 C-6.72683915 29.61441472 -8.35221097 31.30374658 -10 33 C-10.99 32.34 -11.98 31.68 -13 31 C-12.13375 30.505 -11.2675 30.01 -10.375 29.5 C-4.66067284 25.68142118 -0.42117922 19.71830177 1 13 C1.43647747 9.00494742 1.75337013 5.0109805 2 1 C1.34 0.67 0.68 0.34 0 0 Z " fill="#9FA1C1" transform="translate(292,601)"/>
<path d="M0 0 C1.10215609 3.25922004 0.95536342 4.86969451 -0.4765625 7.9765625 C-0.81526367 8.72534668 -1.15396484 9.47413086 -1.50292969 10.24560547 C-1.87321289 11.03080566 -2.24349609 11.81600586 -2.625 12.625 C-2.9952832 13.42953613 -3.36556641 14.23407227 -3.74707031 15.06298828 C-4.81943119 17.38113893 -5.90817363 19.69097007 -7 22 C-7.74636719 23.61648438 -7.74636719 23.61648438 -8.5078125 25.265625 C-10.51902587 29.49043799 -12.29619157 32.98208202 -16 36 C-15.52899638 32.11422011 -14.15757714 29.33605006 -12.16796875 25.99609375 C-7.98128464 18.84092458 -4.87960035 11.35701739 -2.015625 3.58984375 C-1 1 -1 1 0 0 Z " fill="#8989AD" transform="translate(718,300)"/>
<path d="M0 0 C1.29421875 -0.01224609 2.5884375 -0.02449219 3.921875 -0.03710938 C10.90386582 -0.04777433 17.13779522 0.32260634 23.875 2.1875 C20.56195703 4.04989041 18.87477277 4.19301027 15.11865234 3.51171875 C8.86939032 2.60866979 2.43085432 2.76876228 -3.87304688 2.58203125 C-5.00162109 2.54464844 -6.13019531 2.50726563 -7.29296875 2.46875 C-8.82860474 2.42331055 -8.82860474 2.42331055 -10.39526367 2.37695312 C-12.77887327 2.21152239 -14.84115068 1.86116566 -17.125 1.1875 C-11.65437197 -0.63604268 -5.72369943 0.00280024 0 0 Z " fill="#A7A8C3" transform="translate(240.125,112.8125)"/>
<path d="M0 0 C0.33 0 0.66 0 1 0 C1.28875 1.0725 1.5775 2.145 1.875 3.25 C2.76598393 6.76876961 2.76598393 6.76876961 4.0546875 8.77734375 C5.41983963 11.98714359 5.26396042 14.83984585 5.25 18.3125 C5.25515625 19.58738281 5.2603125 20.86226562 5.265625 22.17578125 C4.98998799 26.14414357 4.22559061 29.24054943 3 33 C2.34 33 1.68 33 1 33 C1.144375 31.9275 1.28875 30.855 1.4375 29.75 C1.62969356 28.16722954 1.81651061 26.58380313 2 25 C2.11859375 23.989375 2.2371875 22.97875 2.359375 21.9375 C2.46765625 20.885625 2.5759375 19.83375 2.6875 18.75 C2.84798828 17.25726563 2.84798828 17.25726563 3.01171875 15.734375 C2.99445496 11.70615768 1.80363722 9.80363722 -1 7 C-1.70710678 5.35008418 -2.37943989 3.68437744 -3 2 C-2.01 2 -1.02 2 0 2 C0 1.34 0 0.68 0 0 Z " fill="#9091B2" transform="translate(727,234)"/>
<path d="M0 0 C26.17458118 -0.48371916 26.17458118 -0.48371916 38 7 C35.01245306 8.30611348 33.87369278 7.95426285 30.7421875 6.8203125 C29.45202722 6.25771912 28.16303074 5.6924519 26.875 5.125 C17.99443639 1.45739388 9.51653439 1.02202901 0 1 C0 0.67 0 0.34 0 0 Z " fill="#C085A2" transform="translate(426,400)"/>
<path d="M0 0 C0.66 0 1.32 0 2 0 C5 4.38461538 5 4.38461538 5 7 C5.886875 7.226875 6.77375 7.45375 7.6875 7.6875 C11.47899803 9.18979167 13.14090936 11.14090936 16 14 C18.29277941 15.21833885 20.55813492 16.09028556 23 17 C23 17.33 23 17.66 23 18 C17.90483579 18.63689553 14.21490706 16.61822129 10 14 C5.64736279 10.35593164 2.71371862 5.9424322 0 1 C0 0.67 0 0.34 0 0 Z " fill="#D188A3" transform="translate(426,413)"/>
<path d="M0 0 C3.60409919 -0.05800828 7.20807851 -0.09359869 10.8125 -0.125 C12.34874023 -0.15013672 12.34874023 -0.15013672 13.91601562 -0.17578125 C14.89892578 -0.18222656 15.88183594 -0.18867188 16.89453125 -0.1953125 C17.80050049 -0.20578613 18.70646973 -0.21625977 19.63989258 -0.22705078 C22 0 22 0 25 2 C25 2.66 25 3.32 25 4 C19.72 3.67 14.44 3.34 9 3 C9 2.67 9 2.34 9 2 C6.03 1.67 3.06 1.34 0 1 C0 0.67 0 0.34 0 0 Z " fill="#5E618F" transform="translate(512,311)"/>
<path d="M0 0 C1.16144531 0.00902344 2.32289063 0.01804687 3.51953125 0.02734375 C4.39996094 0.03894531 5.28039062 0.05054688 6.1875 0.0625 C6.5175 1.0525 6.8475 2.0425 7.1875 3.0625 C2.2375 3.3925 -2.7125 3.7225 -7.8125 4.0625 C-7.8125 3.4025 -7.8125 2.7425 -7.8125 2.0625 C-10.1225 2.3925 -12.4325 2.7225 -14.8125 3.0625 C-10.00106169 -0.14512554 -5.68834248 -0.057458 0 0 Z " fill="#585B8B" transform="translate(542.8125,323.9375)"/>
<path d="M0 0 C2.828125 0.62890625 2.828125 0.62890625 6 2 C7.609375 4.71484375 7.609375 4.71484375 8.75 7.9375 C9.98233659 11.31821004 10.99603027 13.99404541 13 17 C13 17.99 13 18.98 13 20 C12.01 20 11.02 20 10 20 C9.649375 18.741875 9.29875 17.48375 8.9375 16.1875 C6.96694211 10.18016818 3.54070294 5.18979747 0 0 Z " fill="#695275" transform="translate(476,417)"/>
<path d="M0 0 C0.33 0.99 0.66 1.98 1 3 C1.99 2.67 2.98 2.34 4 2 C3.36869899 8.43927028 3.36869899 8.43927028 1.5 11.28125 C-0.39596255 14.71768213 -0.5051551 17.41031906 -0.6875 21.3125 C-0.75324219 22.56675781 -0.81898438 23.82101563 -0.88671875 25.11328125 C-0.92410156 26.06589844 -0.96148437 27.01851562 -1 28 C-1.33 28 -1.66 28 -2 28 C-2.23889655 18.40432207 -1.78831859 9.46850826 0 0 Z " fill="#AAACC8" transform="translate(141,210)"/>
<path d="M0 0 C0.33 0 0.66 0 1 0 C1.34731539 6.53858973 0.18903647 11.69249075 -1.875 17.875 C-2.14441406 18.72835938 -2.41382813 19.58171875 -2.69140625 20.4609375 C-4.72242755 26.72242755 -4.72242755 26.72242755 -7 29 C-6.5297534 23.82728738 -5.5683197 19.40337709 -3.83203125 14.51953125 C-2.26081124 9.76161151 -1.16213628 4.87108186 0 0 Z " fill="#8989AE" transform="translate(727,268)"/>
<path d="M0 0 C3.33325754 -0.05874776 6.66637938 -0.09384467 10 -0.125 C10.93457031 -0.14175781 11.86914062 -0.15851563 12.83203125 -0.17578125 C18.59209963 -0.21606145 23.4774282 0.34583345 29 2 C29 2.33 29 2.66 29 3 C19.38954898 3.1686044 9.40383164 3.13560299 0 1 C0 0.67 0 0.34 0 0 Z " fill="#9C9FBD" transform="translate(459,127)"/>
<path d="M0 0 C0.33 0.66 0.66 1.32 1 2 C-3.18389906 7.12527635 -7.54904814 12.17619795 -13 16 C-13.99 16 -14.98 16 -16 16 C-14.70543266 12.11629798 -12.79473476 10.92909074 -9.625 8.375 C-8.64789062 7.57835937 -7.67078125 6.78171875 -6.6640625 5.9609375 C-4 4 -4 4 -1 3 C-0.67 2.01 -0.34 1.02 0 0 Z " fill="#59637F" transform="translate(679,736)"/>
<path d="M0 0 C-0.33 0.66 -0.66 1.32 -1 2 C-2.63090565 2.4717258 -4.28073289 2.87918842 -5.9375 3.25 C-8.64702034 3.92931036 -8.64702034 3.92931036 -11 5 C-12.76097486 8.01773585 -12.76097486 8.01773585 -13 11 C-13.99 11 -14.98 11 -16 11 C-16 7.00288588 -14.67858456 5.8957671 -12 3 C-7.99681229 -0.13763361 -5.01615953 -0.29506821 0 0 Z " fill="#525585" transform="translate(312,686)"/>
<path d="M0 0 C0 0.33 0 0.66 0 1 C-3.04080421 1.50579714 -6.08246646 2.00480759 -9.125 2.5 C-10.40890625 2.71462891 -10.40890625 2.71462891 -11.71875 2.93359375 C-16.19671505 3.65695734 -20.44563435 4.17918816 -25 4 C-25 3.34 -25 2.68 -25 2 C-24.01 1.87625 -23.02 1.7525 -22 1.625 C-19.23727227 1.24851606 -16.90204785 0.67601412 -14.1875 -0.125 C-9.37915341 -1.40974487 -4.86083332 -0.73709358 0 0 Z " fill="#8C8AAD" transform="translate(641,505)"/>
<path d="M0 0 C1.32 0.33 2.64 0.66 4 1 C0.18387615 4.25191199 -4.23299891 6.11627147 -8.75 8.1875 C-9.54277344 8.55552734 -10.33554687 8.92355469 -11.15234375 9.30273438 C-13.09963272 10.20599492 -15.04955989 11.1035641 -17 12 C-17.66 11.34 -18.32 10.68 -19 10 C-16.21128823 8.66042079 -13.41856938 7.32941565 -10.625 6 C-9.8309375 5.6184375 -9.036875 5.236875 -8.21875 4.84375 C-7.45820313 4.4828125 -6.69765625 4.121875 -5.9140625 3.75 C-5.2123291 3.41484375 -4.5105957 3.0796875 -3.78759766 2.734375 C-2 2 -2 2 0 2 C0 1.34 0 0.68 0 0 Z " fill="#8788AA" transform="translate(331,735)"/>
<path d="M0 0 C1.65 0 3.3 0 5 0 C1.16393162 4.31278367 -2.54848239 6.53058615 -7.8125 8.8125 C-8.50537109 9.12380859 -9.19824219 9.43511719 -9.91210938 9.75585938 C-11.60354491 10.5140891 -13.30116554 11.25849616 -15 12 C-13.69331354 8.07994061 -12.21332305 7.71967958 -8.625 5.8125 C-7.64789062 5.28269531 -6.67078125 4.75289063 -5.6640625 4.20703125 C-3 3 -3 3 0 3 C0 2.01 0 1.02 0 0 Z " fill="#8D90AE" transform="translate(766,456)"/>
<path d="M0 0 C0.33 0 0.66 0 1 0 C0.39700836 7.23589973 -1.1150587 13.99370876 -3 21 C-3.99 21 -4.98 21 -6 21 C-5.42381249 15.85404946 -4.25256722 11.44921945 -2.4375 6.5625 C-1.98246094 5.32628906 -1.52742187 4.09007812 -1.05859375 2.81640625 C-0.70925781 1.88699219 -0.35992187 0.95757812 0 0 Z " fill="#616783" transform="translate(136,397)"/>
<path d="M0 0 C2.475 0.495 2.475 0.495 5 1 C5 1.66 5 2.32 5 3 C5.66 3 6.32 3 7 3 C7 3.66 7 4.32 7 5 C7.598125 5.28875 8.19625 5.5775 8.8125 5.875 C11 7 11 7 14 9 C14 9.66 14 10.32 14 11 C14.99 11.33 15.98 11.66 17 12 C17 12.66 17 13.32 17 14 C17.66 14.33 18.32 14.66 19 15 C14.55928248 15 12.53750766 12.10714428 9.5 9.1875 C8.62794922 8.36668945 8.62794922 8.36668945 7.73828125 7.52929688 C5.11950415 5.05733908 2.53959828 2.55331817 0 0 Z " fill="#9190B0" transform="translate(523,695)"/>
<path d="M0 0 C5.71937959 1.85493392 11.35555275 3.93103891 17 6 C16.67 7.32 16.34 8.64 16 10 C12.35524815 8.63649571 9.08755513 6.998536 5.75 5 C4.44289063 4.2265625 4.44289063 4.2265625 3.109375 3.4375 C1 2 1 2 0 0 Z " fill="#7A7DAD" transform="translate(441,378)"/>
<path d="M0 0 C0.33 0.99 0.66 1.98 1 3 C-0.52343556 5.50468129 -2.06627279 7.78566991 -3.8125 10.125 C-4.27720703 10.77082031 -4.74191406 11.41664063 -5.22070312 12.08203125 C-8.7066474 16.8533237 -8.7066474 16.8533237 -11 18 C-10.67 16.35 -10.34 14.7 -10 13 C-9.34 13 -8.68 13 -8 13 C-7.79375 12.34 -7.5875 11.68 -7.375 11 C-5.48847129 6.88393737 -2.79432021 3.5412297 0 0 Z " fill="#8788AC" transform="translate(700,337)"/>
<path d="M0 0 C2.78490859 3.91950098 1.81114407 7.78612016 1.125 12.25 C1.02058594 12.99507813 0.91617187 13.74015625 0.80859375 14.5078125 C0.55018787 16.34014511 0.27657918 18.17032234 0 20 C-1.32 20.33 -2.64 20.66 -4 21 C-3.79503906 20.07058594 -3.59007812 19.14117187 -3.37890625 18.18359375 C-3.10949219 16.94738281 -2.84007812 15.71117187 -2.5625 14.4375 C-2.29566406 13.21933594 -2.02882813 12.00117188 -1.75390625 10.74609375 C-1.03292641 7.16360843 -0.47992499 3.62040498 0 0 Z " fill="#9FA0BF" transform="translate(454,273)"/>
<path d="M0 0 C0 0.66 0 1.32 0 2 C-2.37145894 2.84479453 -4.74634124 3.67593283 -7.125 4.5 C-7.79015625 4.73847656 -8.4553125 4.97695313 -9.140625 5.22265625 C-13.23354055 6.62708806 -16.61131792 7.27343814 -21 7 C-18.29066863 4.29066863 -15.74613439 3.93728931 -12.0625 2.9375 C-1.34339623 0 -1.34339623 0 0 0 Z " fill="#8382A7" transform="translate(303,749)"/>
<path d="M0 0 C0.66 0 1.32 0 2 0 C0.45747973 3.80836925 -1.89121156 5.98117914 -4.9375 8.6875 C-5.81277344 9.47511719 -6.68804687 10.26273438 -7.58984375 11.07421875 C-10 13 -10 13 -13 14 C-13.33 13.34 -13.66 12.68 -14 12 C-12.68 11.67 -11.36 11.34 -10 11 C-10 10.34 -10 9.68 -10 9 C-8.3203125 7.34375 -8.3203125 7.34375 -6.125 5.5 C-4.00964496 3.71066742 -1.95980876 1.95980876 0 0 Z " fill="#8686A8" transform="translate(378,702)"/>
<path d="M0 0 C0.33 0.66 0.66 1.32 1 2 C-1.08047297 2.5321441 -3.16452293 3.05031786 -5.25 3.5625 C-6.41015625 3.85253906 -7.5703125 4.14257812 -8.765625 4.44140625 C-11.72090983 4.95179964 -13.24434101 5.02996165 -16 4 C-12.11376605 0.11376605 -5.32712984 -0.3436858 0 0 Z " fill="#A7A9C4" transform="translate(409,129)"/>
<path d="M0 0 C-3.23618132 1.72700061 -6.52653844 2.95270672 -10 4.125 C-11.03125 4.47820312 -12.0625 4.83140625 -13.125 5.1953125 C-16 6 -16 6 -20 6 C-20 5.34 -20 4.68 -20 4 C-13.31135092 1.63667732 -7.17452919 -0.21101556 0 0 Z " fill="#8989AC" transform="translate(693,491)"/>
<path d="M0 0 C2.49361571 1.20381448 4.68143083 2.45428722 7 4 C8.98799818 4.70164642 10.98698517 5.37372872 13 6 C13 6.66 13 7.32 13 8 C9.875 8.4375 9.875 8.4375 6 8 C3.58530416 5.95719874 1.72991111 3.64239169 0 1 C0 0.67 0 0.34 0 0 Z " fill="#4C4E7E" transform="translate(302,717)"/>
<path d="M0 0 C0.99 0.66 1.98 1.32 3 2 C0.89679937 2.50404808 -1.20759791 3.00310508 -3.3125 3.5 C-5.07013672 3.91765625 -5.07013672 3.91765625 -6.86328125 4.34375 C-10 5 -10 5 -13 5 C-13.33 5.66 -13.66 6.32 -14 7 C-15.98 7 -17.96 7 -20 7 C-16.31328188 4.54218792 -12.71503225 3.50958393 -8.5 2.25 C-7.72785156 2.00378906 -6.95570313 1.75757813 -6.16015625 1.50390625 C-4.13550959 0.89686314 -2.06773687 0.43836022 0 0 Z " fill="#9493B5" transform="translate(669,397)"/>
<path d="M0 0 C8.15996897 -0.93752835 13.5512355 0.90299575 20 6 C20.99 7.485 20.99 7.485 22 9 C20.68 8.67 19.36 8.34 18 8 C18 7.34 18 6.68 18 6 C17.01 6 16.02 6 15 6 C15 5.34 15 4.68 15 4 C12.03 3.505 12.03 3.505 9 3 C9 2.34 9 1.68 9 1 C6.03 1 3.06 1 0 1 C0 0.67 0 0.34 0 0 Z " fill="#697087" transform="translate(728,372)"/>
<path d="M0 0 C0.66 0.33 1.32 0.66 2 1 C3.53668865 1.22467831 5.07968054 1.40796805 6.625 1.5625 C7.85089844 1.68818359 7.85089844 1.68818359 9.1015625 1.81640625 C9.72804687 1.87699219 10.35453125 1.93757812 11 2 C11 2.33 11 2.66 11 3 C10.19175781 3.06058594 9.38351563 3.12117187 8.55078125 3.18359375 C6.94783203 3.30927734 6.94783203 3.30927734 5.3125 3.4375 C4.25675781 3.51871094 3.20101562 3.59992187 2.11328125 3.68359375 C-0.65086297 3.96451681 -3.28945741 4.40156852 -6 5 C-6.33 5.99 -6.66 6.98 -7 8 C-7.33 6.68 -7.66 5.36 -8 4 C-6.71349294 3.30289269 -5.42059335 2.61757124 -4.125 1.9375 C-3.40570313 1.55464844 -2.68640625 1.17179688 -1.9453125 0.77734375 C-1.30335938 0.52082031 -0.66140625 0.26429688 0 0 Z " fill="#8E93B9" transform="translate(231,737)"/>
<path d="M0 0 C0.33 0 0.66 0 1 0 C1.4731614 7.88602342 1.17981006 13.20780865 -3 20 C-4.25541557 16.23375329 -3.37061958 14.62811066 -2 11 C-1.34 11 -0.68 11 0 11 C-0.185625 9.741875 -0.37125 8.48375 -0.5625 7.1875 C-1.00732761 4.17255732 -0.99843846 2.99531539 0 0 Z " fill="#5C6680" transform="translate(701,694)"/>
<path d="M0 0 C0.33 0 0.66 0 1 0 C1.10957031 0.58007812 1.21914063 1.16015625 1.33203125 1.7578125 C2.31874288 6.61917224 3.63635822 10.59503123 6 15 C6 15.66 6 16.32 6 17 C3 16 3 16 1.796875 13.671875 C1.45140625 12.70765625 1.1059375 11.7434375 0.75 10.75 C0.39421875 9.79609375 0.0384375 8.8421875 -0.328125 7.859375 C-1.04467822 4.80985782 -0.84919899 2.98308364 0 0 Z " fill="#A2A3BF" transform="translate(533,282)"/>
<path d="M0 0 C6.6772895 0.60702632 12.70127996 2.77631394 19 5 C19 5.33 19 5.66 19 6 C11.85972845 6.34830593 6.2396985 4.3481309 0 1 C0 0.67 0 0.34 0 0 Z " fill="#A0A2BE" transform="translate(264,116)"/>
<path d="M0 0 C1.9407813 3.21976361 2.16129112 5.23279597 1.6875 8.9375 C1.57921875 9.81019531 1.4709375 10.68289063 1.359375 11.58203125 C0.98866073 14.07629356 0.57315902 16.54360418 0 19 C-0.33 19 -0.66 19 -1 19 C-1.0272616 16.95840905 -1.04651345 14.91671037 -1.0625 12.875 C-1.07410156 11.73804688 -1.08570313 10.60109375 -1.09765625 9.4296875 C-1.005327 6.1870844 -0.61389906 3.18067388 0 0 Z " fill="#8D8AAC" transform="translate(609,558)"/>
<path d="M0 0 C-4.93387858 2.25861997 -9.80355921 4.40109514 -15 6 C-14 3 -14 3 -11.85546875 1.796875 C-10.97503906 1.45140625 -10.09460938 1.1059375 -9.1875 0.75 C-8.31480469 0.39421875 -7.44210937 0.0384375 -6.54296875 -0.328125 C-3.86358764 -1.03604136 -2.56787877 -0.9337741 0 0 Z " fill="#8888AC" transform="translate(629,399)"/>
<path d="M0 0 C1 3 1 3 -0.109375 5.4453125 C-0.65078125 6.32960938 -1.1921875 7.21390625 -1.75 8.125 C-2.54664063 9.45917969 -2.54664063 9.45917969 -3.359375 10.8203125 C-5 13 -5 13 -8 14 C-6.6744419 10.37723685 -5.05653045 7.36494652 -2.875 4.1875 C-2.33617187 3.39730469 -1.79734375 2.60710937 -1.2421875 1.79296875 C-0.83226562 1.20128906 -0.42234375 0.60960937 0 0 Z " fill="#666D86" transform="translate(148,378)"/>
<path d="M0 0 C0.66 0 1.32 0 2 0 C4.37590142 3.70416126 4.20500286 6.92984573 4.125 11.25 C4.10695313 12.51328125 4.08890625 13.7765625 4.0703125 15.078125 C4.04710937 16.04234375 4.02390625 17.0065625 4 18 C3.67 18 3.34 18 3 18 C2.96132813 16.73542969 2.96132813 16.73542969 2.921875 15.4453125 C2.83679688 13.80175781 2.83679688 13.80175781 2.75 12.125 C2.70359375 11.03445313 2.6571875 9.94390625 2.609375 8.8203125 C2.31153872 5.8667935 2.31153872 5.8667935 -0.046875 4.6171875 C-1.01367188 4.31167969 -1.01367188 4.31167969 -2 4 C-1.34 2.68 -0.68 1.36 0 0 Z " fill="#505050" transform="translate(571,266)"/>
<path d="M0 0 C0.66 0 1.32 0 2 0 C4.62096065 6.88002171 4.18170362 13.72176039 4 21 C3.67 21 3.34 21 3 21 C2.86722656 19.98679687 2.73445312 18.97359375 2.59765625 17.9296875 C2.41932416 16.57811796 2.24093575 15.22655586 2.0625 13.875 C1.97548828 13.20984375 1.88847656 12.5446875 1.79882812 11.859375 C1.27369442 7.89169812 0.68185986 3.94373002 0 0 Z " fill="#A5A7C2" transform="translate(589,256)"/>
<path d="M0 0 C1.48117801 0.28127421 2.95993249 0.57533732 4.4375 0.875 C5.67306641 1.11863281 5.67306641 1.11863281 6.93359375 1.3671875 C7.61550781 1.57601563 8.29742188 1.78484375 9 2 C9.33 2.66 9.66 3.32 10 4 C4.84828377 4.09038099 0.08086796 3.84681133 -5 3 C-5 2.67 -5 2.34 -5 2 C-3.35 1.67 -1.7 1.34 0 1 C0 0.67 0 0.34 0 0 Z " fill="#58598A" transform="translate(514,298)"/>
<path d="M0 0 C0.99 0.33 1.98 0.66 3 1 C-0.96 3.97 -4.92 6.94 -9 10 C-9.33 9.01 -9.66 8.02 -10 7 C-8.4050992 5.80008401 -6.79873853 4.61538682 -5.1875 3.4375 C-3.84751953 2.44556641 -3.84751953 2.44556641 -2.48046875 1.43359375 C-1.66191406 0.96050781 -0.84335937 0.48742187 0 0 Z " fill="#606681" transform="translate(660,753)"/>
<path d="M0 0 C-1.93467942 0.83986084 -3.87285129 1.67168027 -5.8125 2.5 C-7.43091797 3.19609375 -7.43091797 3.19609375 -9.08203125 3.90625 C-12 5 -12 5 -15 5 C-13.625 3.5 -13.625 3.5 -12 2 C-11.34 2 -10.68 2 -10 2 C-10 1.34 -10 0.68 -10 0 C-6.26432828 -0.76411467 -3.65188082 -1.07174763 0 0 Z " fill="#9394B3" transform="translate(740,474)"/>
<path d="M0 0 C1.66666667 1.66666667 3.33333333 3.33333333 5 5 C5.763125 5.721875 6.52625 6.44375 7.3125 7.1875 C9 9 9 9 9 11 C6.525 10.01 6.525 10.01 4 9 C4 8.34 4 7.68 4 7 C3.34 7 2.68 7 2 7 C0 4 0 4 0 0 Z " fill="#9C9DBD" transform="translate(540,300)"/>
<path d="M0 0 C1.32 0 2.64 0 4 0 C4 0.66 4 1.32 4 2 C4.99 2 5.98 2 7 2 C7.103125 2.639375 7.20625 3.27875 7.3125 3.9375 C7.539375 4.618125 7.76625 5.29875 8 6 C8.99 6.33 9.98 6.66 11 7 C6.66161736 7 6.25501626 6.79141434 3.25 4.0625 C2.63640625 3.51722656 2.0228125 2.97195313 1.390625 2.41015625 C0 1 0 1 0 0 Z " fill="#5F6380" transform="translate(159,286)"/>
<path d="M0 0 C0.33 0 0.66 0 1 0 C1.33 5.28 1.66 10.56 2 16 C0 15 0 15 -0.625 13.4375 C-1.32803829 8.8677511 -1.47499409 4.42498226 0 0 Z " fill="#2A292B" transform="translate(413,272)"/>
<path d="M0 0 C0.78375 0.515625 1.5675 1.03125 2.375 1.5625 C3.24125 2.036875 4.1075 2.51125 5 3 C5.66 2.67 6.32 2.34 7 2 C6.67 4.31 6.34 6.62 6 9 C3.69 7.02 1.38 5.04 -1 3 C-0.67 2.01 -0.34 1.02 0 0 Z " fill="#8687A9" transform="translate(597,765)"/>
<path d="M0 0 C1.32 0.33 2.64 0.66 4 1 C4 1.66 4 2.32 4 3 C4.61875 3.2475 5.2375 3.495 5.875 3.75 C8.35068687 5.20628639 8.95125002 6.37812506 10 9 C7 9 7 9 5.17578125 7.28515625 C4.56089844 6.55167969 3.94601562 5.81820312 3.3125 5.0625 C2.68988281 4.33160156 2.06726563 3.60070312 1.42578125 2.84765625 C0 1 0 1 0 0 Z " fill="#8C8CAB" transform="translate(572,741)"/>
<path d="M0 0 C1.175625 0.433125 1.175625 0.433125 2.375 0.875 C6.8622758 2.26760284 11.385279 3.14271981 16 4 C16 4.33 16 4.66 16 5 C7.57142857 6.28571429 7.57142857 6.28571429 3 5 C3 4.01 3 3.02 3 2 C2.01 2 1.02 2 0 2 C0 1.34 0 0.68 0 0 Z " fill="#ACADC5" transform="translate(549,310)"/>
<path d="M0 0 C0.66 0 1.32 0 2 0 C2.23053497 2.84326464 2.35903101 4.46145349 0.75 6.875 C-1 8 -1 8 -3.109375 7.5703125 C-3.73328125 7.38210938 -4.3571875 7.19390625 -5 7 C-4.21654285 5.82780457 -3.42297164 4.66236332 -2.625 3.5 C-2.18414063 2.8503125 -1.74328125 2.200625 -1.2890625 1.53125 C-0.65097656 0.77328125 -0.65097656 0.77328125 0 0 Z " fill="#676A96" transform="translate(646,655)"/>
<path d="M0 0 C0.99 0 1.98 0 3 0 C4.51708428 12.66970387 4.51708428 12.66970387 2 18 C1.34 18 0.68 18 0 18 C0.66 12.39 1.32 6.78 2 1 C1.34 0.67 0.68 0.34 0 0 Z " fill="#B8B9D2" transform="translate(292,601)"/>
<path d="M0 0 C3.37462715 0.54723683 5.08235 1.0549 8 3 C8 3.66 8 4.32 8 5 C9.32 5.33 10.64 5.66 12 6 C12 6.66 12 7.32 12 8 C7.44328408 6.48109469 3.68276708 4.04597738 0 1 C0 0.67 0 0.34 0 0 Z " fill="#8F92AC" transform="translate(135,449)"/>
<path d="M0 0 C0.66 0 1.32 0 2 0 C2.08086147 1.79093191 2.13912702 3.58289628 2.1875 5.375 C2.22230469 6.37273438 2.25710937 7.37046875 2.29296875 8.3984375 C2.19628906 9.25695312 2.09960938 10.11546875 2 11 C1.01 11.66 0.02 12.32 -1 13 C-0.67 8.71 -0.34 4.42 0 0 Z " fill="#A6A9D5" transform="translate(245,714)"/>
<path d="M0 0 C3.68754757 0.49831724 5.60490662 1.10067643 8 4 C5 6 5 6 3 7 C0 3.375 0 3.375 0 0 Z " fill="#585E76" transform="translate(221,534)"/>
<path d="M0 0 C6.19518473 0.41588046 11.26689311 1.60251894 17 4 C13.02623171 5.56393356 10.18622097 4.36145292 6.25 3.0625 C4.49429687 2.49208984 4.49429687 2.49208984 2.703125 1.91015625 C1.81109375 1.60980469 0.9190625 1.30945313 0 1 C0 0.67 0 0.34 0 0 Z " fill="#9B9EBD" transform="translate(254,390)"/>
<path d="M0 0 C1.21236328 0.02707031 1.21236328 0.02707031 2.44921875 0.0546875 C3.37154297 0.08949219 3.37154297 0.08949219 4.3125 0.125 C4.6425 1.115 4.9725 2.105 5.3125 3.125 C1.0225 2.795 -3.2675 2.465 -7.6875 2.125 C-4.48369983 -0.01086678 -3.66810033 -0.10632175 0 0 Z " fill="#565988" transform="translate(531.6875,311.875)"/>
<path d="M0 0 C-1.66751148 3.94139078 -4.22710649 6.7892812 -7 10 C-7.33 9.01 -7.66 8.02 -8 7 C-6.85546875 5.17578125 -6.85546875 5.17578125 -5.1875 3.3125 C-4.37345703 2.37857422 -4.37345703 2.37857422 -3.54296875 1.42578125 C-2 0 -2 0 0 0 Z " fill="#9193B5" transform="translate(408,239)"/>
<path d="M0 0 C3.3 0 6.6 0 10 0 C10.33 0.99 10.66 1.98 11 3 C9.35333797 2.8864371 7.70763918 2.75882619 6.0625 2.625 C5.14597656 2.55539062 4.22945312 2.48578125 3.28515625 2.4140625 C2.15400391 2.20910156 2.15400391 2.20910156 1 2 C0.67 1.34 0.34 0.68 0 0 Z " fill="#404869" transform="translate(211,540)"/>
<path d="M0 0 C2.475 0.99 2.475 0.99 5 2 C3.68197635 5.64991166 2.40785992 7.7895201 0 11 C0 7.37 0 3.74 0 0 Z " fill="#74798F" transform="translate(191,527)"/>
<path d="M0 0 C-4.77357872 2.71391278 -8.34388537 4.56561146 -14 4 C-5.36477524 -1.75681651 -5.36477524 -1.75681651 0 0 Z M-16 4 C-14 5 -14 5 -14 5 Z " fill="#888AAB" transform="translate(750,469)"/>
<path d="M0 0 C2.89961266 3.86615021 3.80156329 5.3367374 4 10 C3.01 10.99 2.02 11.98 1 13 C0.67 8.71 0.34 4.42 0 0 Z " fill="#A7ABD7" transform="translate(198,404)"/>
<path d="M0 0 C7.74468085 0.74468085 7.74468085 0.74468085 11 4 C11 4.66 11 5.32 11 6 C6.95743617 4.77782954 3.50711041 3.37245704 0 1 C0 0.67 0 0.34 0 0 Z " fill="#676C8B" transform="translate(225,363)"/>
<path d="M0 0 C0.66 0 1.32 0 2 0 C3.53266582 3.06533164 3.10276471 6.26754272 3.0625 9.625 C3.05798828 10.33140625 3.05347656 11.0378125 3.04882812 11.765625 C3.03703875 13.51045275 3.01910324 15.255237 3 17 C2.67 17 2.34 17 2 17 C2 12.38 2 7.76 2 3 C0.68 3.33 -0.64 3.66 -2 4 C-1.34 2.68 -0.68 1.36 0 0 Z " fill="#565657" transform="translate(444,267)"/>
<path d="M0 0 C1.60517097 0.08733576 3.20921662 0.19552224 4.8125 0.3125 C6.15248047 0.39951172 6.15248047 0.39951172 7.51953125 0.48828125 C10.30604 1.06313581 11.24135754 1.8206856 13 4 C8.28596212 3.52060632 4.33420699 3.03165952 0 1 C0 0.67 0 0.34 0 0 Z " fill="#9897B2" transform="translate(253,599)"/>
<path d="M0 0 C0.66 0 1.32 0 2 0 C2 3.3 2 6.6 2 10 C1.34 10 0.68 10 0 10 C-1.125 3.375 -1.125 3.375 0 0 Z " fill="#565987" transform="translate(590,349)"/>
<path d="M0 0 C0.33 0.66 0.66 1.32 1 2 C1.66 2.33 2.32 2.66 3 3 C2.01 5.97 1.02 8.94 0 12 C-0.66 12 -1.32 12 -2 12 C-1 3.42857143 -1 3.42857143 0 0 Z " fill="#ABAEC7" transform="translate(144,195)"/>
<path d="M0 0 C2.87579981 4.31369972 4 7.80734761 4 13 C3.34 13 2.68 13 2 13 C-0.24828052 8.50343896 -0.16682272 4.92127034 0 0 Z " fill="#A6A9C3" transform="translate(721,175)"/>
<path d="M0 0 C-0.33 0.66 -0.66 1.32 -1 2 C-3.28515625 2.6328125 -3.28515625 2.6328125 -6.0625 3.125 C-6.98160156 3.29257812 -7.90070312 3.46015625 -8.84765625 3.6328125 C-9.91306641 3.81457031 -9.91306641 3.81457031 -11 4 C-11.33 3.34 -11.66 2.68 -12 2 C-7.8803623 0.70756464 -4.33168317 -0.26252625 0 0 Z " fill="#8584A9" transform="translate(665,498)"/>
<path d="M0 0 C6.75 0.875 6.75 0.875 9 2 C8.67 2.99 8.34 3.98 8 5 C5.36 3.68 2.72 2.36 0 1 C0 0.67 0 0.34 0 0 Z " fill="#5B617E" transform="translate(169,294)"/>
<path d="M0 0 C0.66 0 1.32 0 2 0 C1.34 1.98 0.68 3.96 0 6 C-1.65 6.33 -3.3 6.66 -5 7 C-4.54625 6.5875 -4.0925 6.175 -3.625 5.75 C-1.94049626 3.93591905 -1.00734029 2.24714373 0 0 Z " fill="#5E6786" transform="translate(773,449)"/>
<path d="M0 0 C0.66 0.33 1.32 0.66 2 1 C1.50168276 4.68754757 0.89932357 6.60490662 -2 9 C-1.125 1.125 -1.125 1.125 0 0 Z " fill="#444777" transform="translate(567,343)"/>
<path d="M0 0 C-1 3 -1 3 -2.875 4.25 C-5 5 -5 5 -8 4 C-3.375 0 -3.375 0 0 0 Z " fill="#434879" transform="translate(535,326)"/>
<path d="M0 0 C1.65 0.33 3.3 0.66 5 1 C5 1.66 5 2.32 5 3 C2.69 3.33 0.38 3.66 -2 4 C-1.34 2.68 -0.68 1.36 0 0 Z " fill="#474D7D" transform="translate(479,301)"/>
<path d="M0 0 C0.99 0.33 1.98 0.66 3 1 C3.33333333 2.33333333 3.66666667 3.66666667 4 5 C4.99 5.33 5.98 5.66 7 6 C6.67 6.99 6.34 7.98 6 9 C4.99406757 7.8803014 3.9954151 6.7540588 3 5.625 C2.443125 4.99851562 1.88625 4.37203125 1.3125 3.7265625 C0 2 0 2 0 0 Z " fill="#595F7B" transform="translate(152,277)"/>
<path d="M0 0 C0.66 0.33 1.32 0.66 2 1 C-2 7.57142857 -2 7.57142857 -6 9 C-4.47291037 5.56404834 -2.40072955 2.88087546 0 0 Z " fill="#E3E4F0" transform="translate(407,241)"/>
<path d="M0 0 C3.79588866 0.54226981 5.47211993 2.20127563 8 5 C7.67 5.99 7.34 6.98 7 8 C5.83035398 6.8572081 4.66435444 5.71068285 3.5 4.5625 C2.8503125 3.92441406 2.200625 3.28632812 1.53125 2.62890625 C0 1 0 1 0 0 Z " fill="#8C8CAB" transform="translate(556,725)"/>
<path d="M0 0 C-1.39332574 3.36720387 -2.9789286 4.9859524 -6 7 C-6.66 6.34 -7.32 5.68 -8 5 C-2.25 0 -2.25 0 0 0 Z " fill="#9494B3" transform="translate(380,702)"/>
<path d="M0 0 C4.24822374 0.47202486 6.19989709 2.96655518 9 6 C7.35 5.67 5.7 5.34 4 5 C3.67 4.01 3.34 3.02 3 2 C2.01 1.67 1.02 1.34 0 1 C0 0.67 0 0.34 0 0 Z " fill="#A3A6C2" transform="translate(646,640)"/>
<path d="M0 0 C0 0.66 0 1.32 0 2 C-2.97 2.66 -5.94 3.32 -9 4 C-9.33 3.34 -9.66 2.68 -10 2 C-8.7090864 1.66376204 -7.41723903 1.33110751 -6.125 1 C-5.40570313 0.814375 -4.68640625 0.62875 -3.9453125 0.4375 C-2 0 -2 0 0 0 Z " fill="#A5A8C3" transform="translate(267,637)"/>
<path d="M0 0 C0 3 0 3 -2.5 5.6875 C-3.325 6.450625 -4.15 7.21375 -5 8 C-5.99 7.34 -6.98 6.68 -8 6 C-7.05125 5.38125 -6.1025 4.7625 -5.125 4.125 C-2.05554891 2.18029031 -2.05554891 2.18029031 0 0 Z " fill="#A7AAC6" transform="translate(287,626)"/>
<path d="M0 0 C4 4.625 4 4.625 4 8 C3.01 8 2.02 8 1 8 C0.67 5.36 0.34 2.72 0 0 Z " fill="#604C70" transform="translate(485,429)"/>
<path d="M0 0 C2.97 0.495 2.97 0.495 6 1 C6 1.66 6 2.32 6 3 C6.66 3 7.32 3 8 3 C7.67 3.99 7.34 4.98 7 6 C5.83054208 5.19152271 4.66449539 4.37810888 3.5 3.5625 C2.8503125 3.11003906 2.200625 2.65757812 1.53125 2.19140625 C1.0259375 1.79824219 0.520625 1.40507812 0 1 C0 0.67 0 0.34 0 0 Z " fill="#5E6582" transform="translate(178,299)"/>
<path d="M0 0 C1.32 0.33 2.64 0.66 4 1 C4 1.66 4 2.32 4 3 C5.98 3 7.96 3 10 3 C10 3.33 10 3.66 10 4 C7.69 4.33 5.38 4.66 3 5 C2.01 3.35 1.02 1.7 0 0 Z " fill="#404041" transform="translate(558,268)"/>
<path d="M0 0 C-2.97 1.65 -5.94 3.3 -9 5 C-9.33 4.01 -9.66 3.02 -10 2 C-4.5 -1.125 -4.5 -1.125 0 0 Z " fill="#A3A3BE" transform="translate(417,236)"/>
<path d="M0 0 C1.0326802 2.78823655 1.04509293 3.8677274 0.0625 6.75 C-0.288125 7.4925 -0.63875 8.235 -1 9 C-1.33 9 -1.66 9 -2 9 C-2.125 5.625 -2.125 5.625 -2 2 C-1.34 1.34 -0.68 0.68 0 0 Z " fill="#424574" transform="translate(297,695)"/>
<path d="M0 0 C0.33 0.99 0.66 1.98 1 3 C-1.31 4.98 -3.62 6.96 -6 9 C-4.25618453 5.51236907 -2.47193291 2.96631949 0 0 Z " fill="#585E8D" transform="translate(551,337)"/>
<path d="M0 0 C0.61875 0.78375 1.2375 1.5675 1.875 2.375 C3.89858661 4.96837647 3.89858661 4.96837647 6 7 C5.67 7.99 5.34 8.98 5 10 C0 4.5 0 4.5 0 0 Z " fill="#9295B5" transform="translate(581,240)"/>
<path d="M0 0 C2.46800047 1.15173355 4.04783565 2.04783565 6 4 C5.67 4.99 5.34 5.98 5 7 C3.29115995 5.37660195 1.62553283 3.70680947 0 2 C0 1.34 0 0.68 0 0 Z " fill="#474A7D" transform="translate(326,689)"/>
<path d="M0 0 C1.98 0 3.96 0 6 0 C5.67 1.32 5.34 2.64 5 4 C2.525 3.01 2.525 3.01 0 2 C0 1.34 0 0.68 0 0 Z " fill="#575A8A" transform="translate(317,686)"/>
<path d="M0 0 C3.82097239 0.53069061 6.06171403 1.49701566 9 4 C5.625 3.6875 5.625 3.6875 2 3 C1.34 2.01 0.68 1.02 0 0 Z " fill="#8B8BAD" transform="translate(598,612)"/>
<path d="M0 0 C4.75 0.875 4.75 0.875 7 2 C7 2.66 7 3.32 7 4 C2.25 3.125 2.25 3.125 0 2 C0 1.34 0 0.68 0 0 Z " fill="#9395B4" transform="translate(193,479)"/>
<path d="M0 0 C0 3 0 3 -2 5.1875 C-2.66 5.785625 -3.32 6.38375 -4 7 C-4.66 6.67 -5.32 6.34 -6 6 C-2.25 1.125 -2.25 1.125 0 0 Z " fill="#9394B8" transform="translate(584,303)"/>
<path d="M0 0 C0.66 0.99 1.32 1.98 2 3 C1.01 4.98 0.02 6.96 -1 9 C-1.66 9 -2.32 9 -3 9 C-2.01 6.03 -1.02 3.06 0 0 Z " fill="#AFAFC8" transform="translate(589,290)"/>
<path d="M0 0 C1.1875 1.5625 1.1875 1.5625 2 4 C0.625 7.75 0.625 7.75 -1 11 C-2.60080151 6.99799622 -1.29279692 3.95443764 0 0 Z " fill="#4C4C4E" transform="translate(414,264)"/>
<path d="M0 0 C-3.12180401 0.96661363 -5.52083795 0.98988909 -8.75 0.5625 C-9.94882812 0.40974609 -9.94882812 0.40974609 -11.171875 0.25390625 C-11.77515625 0.17011719 -12.3784375 0.08632812 -13 0 C-13 -0.33 -13 -0.66 -13 -1 C-4.57142857 -2.42857143 -4.57142857 -2.42857143 0 0 Z " fill="#ADACC5" transform="translate(572,235)"/>
<path d="M0 0 C2 3 2 3 1.625 5.6875 C1.41875 6.450625 1.2125 7.21375 1 8 C0.01 8 -0.98 8 -2 8 C-1.34 5.36 -0.68 2.72 0 0 Z " fill="#A6A8C5" transform="translate(147,186)"/>
<path d="M0 0 C0.66 0.33 1.32 0.66 2 1 C0.35 2.98 -1.3 4.96 -3 7 C-3.66 6.01 -4.32 5.02 -5 4 C-3.35 2.68 -1.7 1.36 0 0 Z " fill="#A2A5C5" transform="translate(190,129)"/>
<path d="M0 0 C-0.33 0.66 -0.66 1.32 -1 2 C-3.875 2.75 -3.875 2.75 -7 3 C-7.99 2.34 -8.98 1.68 -10 1 C-6.61981469 -0.04005702 -3.5219721 -0.08004482 0 0 Z " fill="#ACAFC8" transform="translate(629,114)"/>
</svg>
